<?xml version="1.0" encoding="utf-8"?>
<!-- Generator: Adobe Illustrator 15.0.2, SVG Export Plug-In . SVG Version: 6.00 Build 0)  -->
<!DOCTYPE svg PUBLIC "-//W3C//DTD SVG 1.1//EN" "http://www.w3.org/Graphics/SVG/1.1/DTD/svg11.dtd">
<svg version="1.1" xmlns="http://www.w3.org/2000/svg" xmlns:xlink="http://www.w3.org/1999/xlink" x="0px" y="0px"
	 width="356.642px" height="348.079px" viewBox="0 0 356.642 348.079" enable-background="new 0 0 356.642 348.079"
	 xml:space="preserve">
<g id="b_x5F_arrow_copy">
	<linearGradient id="SVGID_1_" gradientUnits="userSpaceOnUse" x1="45.9912" y1="225.3789" x2="182.563" y2="225.3789">
		<stop  offset="0" style="stop-color:#231F20;stop-opacity:0"/>
		<stop  offset="0.5" style="stop-color:#ccc"/>
		<stop  offset="0.5109" style="stop-color:#C3C3C3;stop-opacity:0.9782"/>
		<stop  offset="0.5682" style="stop-color:#999898;stop-opacity:0.8635"/>
		<stop  offset="0.6284" style="stop-color:#747273;stop-opacity:0.7431"/>
		<stop  offset="0.6908" style="stop-color:#575455;stop-opacity:0.6184"/>
		<stop  offset="0.7561" style="stop-color:#403D3D;stop-opacity:0.4877"/>
		<stop  offset="0.8257" style="stop-color:#302C2D;stop-opacity:0.3486"/>
		<stop  offset="0.9023" style="stop-color:#262223;stop-opacity:0.1953"/>
		<stop  offset="1" style="stop-color:#231F20;stop-opacity:0"/>
	</linearGradient>
	
		<line opacity="0.25" fill="url(#SVGID_1_)" stroke="#72706F" stroke-width="8" stroke-miterlimit="10" x1="45.991" y1="283.971" x2="182.563" y2="166.786"/>
	<g opacity="0.25">
		<linearGradient id="SVGID_2_" gradientUnits="userSpaceOnUse" x1="13.8408" y1="282.8662" x2="75.0288" y2="282.8662">
			<stop  offset="0" style="stop-color:#231F20;stop-opacity:0"/>
			<stop  offset="0.5" style="stop-color:#ccc"/>
			<stop  offset="0.5109" style="stop-color:#C3C3C3;stop-opacity:0.9782"/>
			<stop  offset="0.5682" style="stop-color:#999898;stop-opacity:0.8635"/>
			<stop  offset="0.6284" style="stop-color:#747273;stop-opacity:0.7431"/>
			<stop  offset="0.6908" style="stop-color:#575455;stop-opacity:0.6184"/>
			<stop  offset="0.7561" style="stop-color:#403D3D;stop-opacity:0.4877"/>
			<stop  offset="0.8257" style="stop-color:#302C2D;stop-opacity:0.3486"/>
			<stop  offset="0.9023" style="stop-color:#262223;stop-opacity:0.1953"/>
			<stop  offset="1" style="stop-color:#231F20;stop-opacity:0"/>
		</linearGradient>
		<polygon fill="url(#SVGID_2_)" points="13.841,311.557 75.029,291.195 48.395,281.908 43.265,254.176 		"/>
	</g>
</g>
<g id="heart_copy" opacity="0.75">
	<radialGradient id="SVGID_3_" cx="112.8125" cy="155.3008" r="188.1586" gradientUnits="userSpaceOnUse">
		<stop  offset="0" style="stop-color:#231F20;stop-opacity:0"/>
		<stop  offset="0.5" style="stop-color:#ccc"/>
		<stop  offset="0.5109" style="stop-color:#C3C3C3;stop-opacity:0.9782"/>
		<stop  offset="0.5682" style="stop-color:#999898;stop-opacity:0.8635"/>
		<stop  offset="0.6284" style="stop-color:#747273;stop-opacity:0.7431"/>
		<stop  offset="0.6908" style="stop-color:#575455;stop-opacity:0.6184"/>
		<stop  offset="0.7561" style="stop-color:#403D3D;stop-opacity:0.4877"/>
		<stop  offset="0.8257" style="stop-color:#302C2D;stop-opacity:0.3486"/>
		<stop  offset="0.9023" style="stop-color:#262223;stop-opacity:0.1953"/>
		<stop  offset="1" style="stop-color:#231F20;stop-opacity:0"/>
	</radialGradient>
	<path opacity="0.55" fill="url(#SVGID_3_)" d="M231.203,217.322c-7.172,5.092-42.408,23.543-74.197,88.134
		c-31.655-64.66-66.849-83.19-74.009-88.296c-112.742-80.353,10.064-175.477,74.047-69.954
		C221.26,41.829,344.113,137.217,231.203,217.322z"/>
</g>
<g id="t_x5F_arrow_copy">
	
		<line opacity="0.25" fill="none" stroke="#72706F" stroke-width="8" stroke-miterlimit="10" x1="250.061" y1="110.759" x2="315.248" y2="56.243"/>
	<g opacity="0.35">
		<path fill="#CECDCD" d="M316.475,55.195c2.194-8.193,2.539-16.843,1.403-25.185l-25.403,21.797
			c1.533,8.691,0.104,17.776-2.523,26.146L316.475,55.195z"/>
		<path fill="#AAA9A9" d="M289.951,77.954c8.68-1.425,17.802-1.1,26.229,1.48l25.344-21.746c-8.273-2.408-16.661-3.467-25.049-2.493
			L289.951,77.954z"/>
		<path fill="#72706F" d="M290.999,53.074c1.529,8.693,0.104,17.776-2.524,26.146c8.68-1.425,17.799-1.097,26.229,1.48l3.409-2.925
			c-8.279-2.402-16.664-3.464-25.055-2.487c2.197-8.195,2.545-16.848,1.403-25.185L290.999,53.074z"/>
		<path fill="#72706F" d="M299.216,46.023c1.536,8.688,0.105,17.776-2.518,26.141c8.68-1.425,17.793-1.092,26.223,1.486l3.409-2.925
			c-8.273-2.408-16.661-3.467-25.049-2.493c2.194-8.192,2.539-16.842,1.4-25.182L299.216,46.023z"/>
		<path fill="#72706F" d="M307.439,38.967c1.533,8.691,0.104,17.776-2.518,26.141c8.68-1.425,17.793-1.092,26.223,1.486l3.409-2.925
			c-8.273-2.408-16.661-3.467-25.049-2.493c2.194-8.192,2.539-16.842,1.403-25.185L307.439,38.967z"/>
		<path fill="#72706F" d="M315.66,31.914c1.536,8.688,0.107,17.773-2.518,26.141c8.683-1.428,17.796-1.094,26.223,1.486l3.412-2.928
			c-8.273-2.408-16.661-3.467-25.052-2.49c2.197-8.195,2.539-16.843,1.403-25.185L315.66,31.914z"/>
	</g>
</g>
<g id="b_x5F_arrow">
	<line fill="none" stroke="#72706F" stroke-width="8" stroke-miterlimit="10" x1="40.712" y1="277.971" x2="177.284" y2="160.786"/>
	<g>
		<polygon fill="#72706F" points="8.562,305.557 69.75,285.195 43.116,275.908 37.986,248.176 		"/>
	</g>
</g>
<g id="heart">
	<radialGradient id="SVGID_4_" cx="75.3027" cy="141.9121" r="150.8094" gradientUnits="userSpaceOnUse">
		<stop  offset="0" style="stop-color:#FFFFFF"/>
		<stop  offset="0.2099" style="stop-color:#FBD5E5"/>
		<stop  offset="1" style="stop-color:#E76098"/>
	</radialGradient>
	<path fill="url(#SVGID_4_)" stroke="#DA251D" stroke-width="4" stroke-miterlimit="10" d="M217.359,212.267
		c-7.171,5.092-42.408,23.543-74.197,88.134c-31.655-64.66-66.849-83.19-74.009-88.296
		c-112.742-80.353,10.064-175.477,74.047-69.954C207.416,36.773,330.271,132.162,217.359,212.267z"/>
</g>
<g id="t_x5F_arrow">
	<line fill="none" stroke="#72706F" stroke-width="8" stroke-miterlimit="10" x1="177.284" y1="160.786" x2="308.724" y2="48.006"/>
	<g>
		<path fill="#CECDCD" d="M309.95,46.958c2.194-8.193,2.539-16.843,1.403-25.185L285.95,43.571
			c1.533,8.691,0.104,17.776-2.523,26.146L309.95,46.958z"/>
		<path fill="#AAA9A9" d="M283.427,69.717c8.68-1.425,17.802-1.1,26.229,1.48l25.344-21.746c-8.273-2.408-16.661-3.467-25.049-2.493
			L283.427,69.717z"/>
		<path fill="#72706F" d="M284.475,44.837c1.529,8.693,0.104,17.776-2.524,26.146c8.68-1.425,17.799-1.097,26.229,1.48l3.409-2.925
			c-8.279-2.402-16.664-3.464-25.055-2.487c2.197-8.195,2.545-16.848,1.403-25.185L284.475,44.837z"/>
		<path fill="#72706F" d="M292.691,37.787c1.536,8.688,0.105,17.776-2.518,26.141c8.68-1.425,17.793-1.092,26.223,1.486l3.409-2.925
			c-8.273-2.408-16.661-3.467-25.049-2.493c2.194-8.192,2.539-16.842,1.4-25.182L292.691,37.787z"/>
		<path fill="#72706F" d="M300.915,30.73c1.533,8.691,0.104,17.776-2.518,26.141c8.68-1.425,17.793-1.092,26.223,1.486l3.409-2.925
			c-8.273-2.408-16.661-3.467-25.049-2.493c2.194-8.192,2.539-16.842,1.403-25.185L300.915,30.73z"/>
		<path fill="#72706F" d="M309.136,23.677c1.536,8.688,0.107,17.773-2.518,26.141c8.683-1.428,17.796-1.094,26.223,1.486
			l3.412-2.928c-8.273-2.408-16.661-3.467-25.052-2.49c2.197-8.195,2.539-16.843,1.403-25.185L309.136,23.677z"/>
	</g>
</g>
</svg>
