<?xml version="1.0" encoding="UTF-8" standalone="no"?>
<!-- Created with Inkscape (http://www.inkscape.org/) -->

<svg
   xmlns:dc="http://purl.org/dc/elements/1.1/"
   xmlns:cc="http://creativecommons.org/ns#"
   xmlns:rdf="http://www.w3.org/1999/02/22-rdf-syntax-ns#"
   xmlns:svg="http://www.w3.org/2000/svg"
   xmlns="http://www.w3.org/2000/svg"
   xmlns:xlink="http://www.w3.org/1999/xlink"
   version="1.0"
   width="200"
   height="200"
   id="svg2">
  <metadata
     id="metadata7">
    <rdf:RDF>
      <cc:Work
         rdf:about="">
        <dc:format>image/svg+xml</dc:format>
        <dc:type
           rdf:resource="http://purl.org/dc/dcmitype/StillImage" />
        <dc:title></dc:title>
      </cc:Work>
    </rdf:RDF>
  </metadata>
  <defs
     id="defs5">
    <linearGradient
       id="linearGradient3210">
      <stop
         id="stop3212"
         style="stop-color:#0a0098;stop-opacity:1"
         offset="0" />
      <stop
         id="stop3218"
         style="stop-color:#2b28ec;stop-opacity:0"
         offset="0.5" />
      <stop
         id="stop3214"
         style="stop-color:#0017b5;stop-opacity:1"
         offset="1" />
    </linearGradient>
    <linearGradient
       id="linearGradient3180">
      <stop
         id="stop3182"
         style="stop-color:#ffffff;stop-opacity:0"
         offset="0" />
      <stop
         id="stop3184"
         style="stop-color:#ffffff;stop-opacity:1"
         offset="1" />
    </linearGradient>
    <linearGradient
       id="linearGradient3239">
      <stop
         id="stop3241"
         style="stop-color:#000000;stop-opacity:1"
         offset="0" />
      <stop
         id="stop3247"
         style="stop-color:#ffffff;stop-opacity:1"
         offset="0.5" />
      <stop
         id="stop3243"
         style="stop-color:#000000;stop-opacity:1"
         offset="1" />
    </linearGradient>
    <linearGradient
       id="linearGradient3231">
      <stop
         id="stop3233"
         style="stop-color:#ffb6b6;stop-opacity:1"
         offset="0" />
      <stop
         id="stop3235"
         style="stop-color:#000000;stop-opacity:0"
         offset="1" />
    </linearGradient>
    <linearGradient
       id="linearGradient3211">
      <stop
         id="stop3213"
         style="stop-color:#ffffff;stop-opacity:1"
         offset="0" />
      <stop
         id="stop3215"
         style="stop-color:#ffffff;stop-opacity:0"
         offset="1" />
    </linearGradient>
    <linearGradient
       id="linearGradient3167">
      <stop
         id="stop3169"
         style="stop-color:#9fd5ff;stop-opacity:1"
         offset="0" />
      <stop
         id="stop3205"
         style="stop-color:#3e73ff;stop-opacity:1"
         offset="0.5" />
      <stop
         id="stop3171"
         style="stop-color:#003bd6;stop-opacity:1"
         offset="1" />
    </linearGradient>
    <linearGradient
       id="linearGradient3156">
      <stop
         id="stop3158"
         style="stop-color:#ffff00;stop-opacity:0"
         offset="0" />
      <stop
         id="stop3160"
         style="stop-color:#ffffff;stop-opacity:0.2027972"
         offset="1" />
    </linearGradient>
    <radialGradient
       cx="100"
       cy="65.093796"
       r="46.963562"
       fx="100"
       fy="65.093796"
       id="radialGradient3207"
       xlink:href="#linearGradient3167"
       gradientUnits="userSpaceOnUse"
       gradientTransform="matrix(0.9439655,0,0,1.1768095,8.040695,6.024489)" />
    <linearGradient
       x1="198.58299"
       y1="23.32316"
       x2="198.58299"
       y2="63.165371"
       id="linearGradient3217"
       xlink:href="#linearGradient3211"
       gradientUnits="userSpaceOnUse" />
    <linearGradient
       x1="203.13518"
       y1="3.3468275"
       x2="203.08333"
       y2="39.433189"
       id="linearGradient3221"
       xlink:href="#linearGradient3211"
       gradientUnits="userSpaceOnUse" />
    <linearGradient
       x1="147.52083"
       y1="139.27126"
       x2="226.16341"
       y2="139.27126"
       id="linearGradient3245"
       xlink:href="#linearGradient3239"
       gradientUnits="userSpaceOnUse"
       gradientTransform="translate(-86,12)" />
    <linearGradient
       x1="109.95509"
       y1="117.62206"
       x2="109.9551"
       y2="38.779655"
       id="linearGradient3190"
       xlink:href="#linearGradient3180"
       gradientUnits="userSpaceOnUse" />
    <linearGradient
       x1="87.095451"
       y1="107.09915"
       x2="116.08683"
       y2="107.09915"
       id="linearGradient3216"
       xlink:href="#linearGradient3210"
       gradientUnits="userSpaceOnUse" />
  </defs>
  <path
     d="m 146.76923,71.085025 c 0,12.068017 -8.00162,26.744133 -15.82328,40.427535 -7.82166,13.68341 -0.86387,25.97909 -27.69899,26.37409 C 75.24975,138.29279 81.7502,123.17167 73.52368,109.48827 65.29717,95.804866 58.10526,83.153042 58.10526,71.085025 c 0,-24.136034 19.86073,-43.7247 44.33199,-43.7247 24.47125,0 44.33198,19.588666 44.33198,43.7247 z"
     id="path3164"
     style="fill:url(#radialGradient3207);fill-opacity:1;stroke:none" />
  <path
     d="m 236.03239,56.680161 a 37.449394,38.46154 0 1 1 -74.89879,0 37.449394,38.46154 0 1 1 74.89879,0 z"
     transform="matrix(1.0864864,0,0,1.0263158,-112.91564,9.9011294)"
     id="path3209"
     style="fill:url(#linearGradient3217);fill-opacity:1;stroke:none" />
  <path
     d="m 236.03239,56.680161 a 37.449394,38.46154 0 1 1 -74.89879,0 37.449394,38.46154 0 1 1 74.89879,0 z"
     transform="matrix(0.8864864,0,0,-0.7894737,-72.79416,131.0147)"
     id="path3219"
     style="fill:url(#linearGradient3221);fill-opacity:1;stroke:none" />
  <path
     d="m 82.12542,131.38317 0.222673,10.5766 3.186257,4.57409 -2.5088,5.57341 3.51014,5.90136 -3.363033,4.98026 4.993336,5.31415 15.071597,3.07295 16.43406,-2.84951 4.62396,-4.91887 -2.21455,-6.15629 2.31716,-4.58692 -3.81921,-6.45144 2.92108,-4.36482 0.17881,-11.27226 c 0,0 -7.52064,3.28317 -19.62223,3.6963 -12.10863,0.41337 -21.93125,-3.08901 -21.93125,-3.08901 z"
     id="path3225"
     style="fill:url(#linearGradient3245);fill-opacity:1;fill-rule:evenodd;stroke:none" />
  <path
     d="m 91.30364,167.06073 25.07693,0.40486 -13.36033,6.88259 -11.7166,-7.28745 z"
     id="path3249"
     style="fill:#000000;fill-opacity:1;fill-rule:evenodd;stroke:none" />
  <path
     d="m 83.584323,142.6309 19.865067,2.92375 18.80306,-2.82256 -3.13769,4.49194 -15.87717,2.12554 -16.843557,-2.59312 -2.80971,-4.12555 z"
     id="path3251"
     style="fill:#666666;fill-opacity:1;fill-rule:evenodd;stroke:none" />
  <path
     d="m 84.786753,153.67611 18.650487,2.60728 19.62556,-2.20242 -2.09988,4.32797 -17.57426,2.57892 -15.81785,-2.60457 -2.784057,-4.70718 z"
     id="path3253"
     style="fill:#4d4d4d;fill-opacity:1;fill-rule:evenodd;stroke:none" />
  <path
     d="m 83.93927,162.90283 20.01619,3.82185 19.40891,-3.41699 -4.55189,4.63022 -15.10803,2.68153 -14.80571,-2.9467 -4.95947,-4.76991 z"
     id="path3255"
     style="fill:#4d4d4d;fill-opacity:1;fill-rule:evenodd;stroke:none" />
  <path
     d="m 82.19433,132.01619 c 0,0 6.12549,3.25237 20.24292,3.4413 14.02906,0.18774 21.01555,-2.83401 21.01555,-2.83401 l 0.82115,-2.80836 c 0,0 -3.84105,3.66822 -21.8367,3.41565 -17.907276,-0.25133 -21.25506,-3.84615 -21.25506,-3.84615 l 1.01214,2.63157 z"
     id="path3257"
     style="fill:#333333;fill-opacity:1;fill-rule:evenodd;stroke:none" />
  <path
     d="m 148.49242,82.973831 a 35.355339,38.890873 0 1 1 -70.710682,0 35.355339,38.890873 0 1 1 70.710682,0 z"
     transform="matrix(0.96,0,0,0.7,-6.081118,3.325393)"
     id="path2408"
     style="fill:url(#linearGradient3190);fill-opacity:1;stroke:none" />
  <path
     d="m 120.91526,119.74338 a 17.324116,4.2426405 0 1 1 -34.648235,0 17.324116,4.2426405 0 1 1 34.648235,0 z"
     transform="translate(-0.7071068,8.010408)"
     id="path3196"
     style="fill:#0016b7;fill-opacity:0.56603771;stroke:none" />
  <path
     d="m 92.045202,126.81445 c 0,0 4.949748,-7.77817 4.596194,-13.43503 0.0906,-7.10207 -4.703174,-17.526946 -9.545942,-27.223612 1.397904,-4.219052 6.717515,3.18198 14.495686,3.18198 8.87175,-1.23111 12.32574,-7.168657 14.49569,-2.12132 -2.12132,2.828427 -7.95723,18.329992 -7.77817,26.162952 0.19409,8.49043 3.18198,10.6066 4.94975,13.78858 1.30764,2.35374 -16.26346,3.53553 -21.213208,-0.35355 z"
     id="path3200"
     style="fill:url(#linearGradient3216);fill-opacity:1;fill-rule:evenodd;stroke:none" />
  <path
     d="m 90.863221,88.984235 -8.485281,-18.031223 9.899495,18.031224 -1.414214,-10e-7 z"
     id="path3206"
     style="fill:#2e3ae1;fill-opacity:1;fill-rule:evenodd;stroke:none" />
  <path
     d="m 111.36932,88.277129 10.25305,-18.384776 -8.13173,18.031222 -2.12132,0.353554 z"
     id="path3208"
     style="fill:#2e3ae1;fill-opacity:1;fill-rule:evenodd;stroke:none" />
  <path
     d="m 82.731494,70.124585 4.24264,-4.242641 4.242641,6.010408 4.949747,-5.656854 5.303298,6.010407 5.65686,-6.010407 5.3033,5.303301 4.94975,-5.303301 4.24264,4.596194 -1.41422,2.474874 -3.18198,-3.535534 -4.59619,4.949747 -5.3033,-5.656854 -5.65686,6.363961 -5.656851,-5.303301 -5.656854,4.949748 -3.889088,-5.303301 -3.535533,4.596194 -2.828428,-1.414214 2.828428,-2.828427 z"
     id="path3204"
     style="fill:#3518d3;fill-opacity:1;fill-rule:evenodd;stroke:none" />
</svg>
