<?xml version="1.0" encoding="UTF-8" standalone="no"?>
<!-- Created with Inkscape (http://www.inkscape.org/) -->

<svg
   xmlns:dc="http://purl.org/dc/elements/1.1/"
   xmlns:cc="http://creativecommons.org/ns#"
   xmlns:rdf="http://www.w3.org/1999/02/22-rdf-syntax-ns#"
   xmlns:svg="http://www.w3.org/2000/svg"
   xmlns="http://www.w3.org/2000/svg"
   xmlns:xlink="http://www.w3.org/1999/xlink"
   xmlns:sodipodi="http://sodipodi.sourceforge.net/DTD/sodipodi-0.dtd"
   xmlns:inkscape="http://www.inkscape.org/namespaces/inkscape"
   id="svg3039"
   version="1.1"
   inkscape:version="0.48.0 r9654"
   width="1198"
   height="985"
   sodipodi:docname="BelgiumC.svg">
  <defs
     id="defs3043" />
  <sodipodi:namedview
     pagecolor="#ffffff"
     bordercolor="#666666"
     borderopacity="1"
     objecttolerance="10"
     gridtolerance="10"
     guidetolerance="10"
     inkscape:pageopacity="0"
     inkscape:pageshadow="2"
     inkscape:window-width="994"
     inkscape:window-height="706"
     id="namedview3041"
     showgrid="false"
     inkscape:zoom="0.43942712"
     inkscape:cx="599"
     inkscape:cy="492.5"
     inkscape:window-x="0"
     inkscape:window-y="0"
     inkscape:window-maximized="0"
     inkscape:current-layer="svg3039" />
  <path
     style="fill:#000000"
     d="m 879.77963,944.93465 c -0.94621,-0.55048 -2.20137,-2.78717 -2.78927,-4.97043 -0.61808,-2.29541 -2.1067,-4.64957 -3.52962,-5.5819 C 870.25825,932.28396 870.3577,931.3835 874,929.5 c 1.86972,-0.96687 3,-2.33243 3,-3.62447 0,-1.14021 -1.35,-3.3342 -3,-4.87553 -3.32428,-3.10535 -3.57608,-4.10469 -1.76494,-7.00478 1.05786,-1.6939 0.91483,-2.20193 -0.99691,-3.54096 -1.39202,-0.97501 -2.47239,-3.06695 -2.87087,-5.55889 C 867.15411,897.30862 856.27884,887 849.48824,887 c -0.80921,0 -2.03335,-0.9 -2.72031,-2 C 845.49886,882.96791 843,882.24734 843,883.91349 c 0,0.50242 -1.87685,2.29374 -4.17078,3.98071 -4.89092,3.59683 -6.26583,3.0305 -7.22641,-2.9766 -0.52723,-3.29714 -0.14792,-4.93207 2.05238,-8.84631 2.46978,-4.39362 2.58707,-5.07221 1.3803,-7.98561 -0.72536,-1.75118 -3.39259,-4.81977 -5.92717,-6.81909 -2.53457,-1.99932 -5.90791,-4.94424 -7.49629,-6.54425 l -2.88797,-2.90912 -2.11763,2.65576 c -1.4397,1.80557 -3.39638,2.82547 -6.11203,3.18586 -3.38568,0.4493 -4.36385,0.13501 -6.41871,-2.06238 C 802.0136,853.38735 800.79691,853 795.93267,853 c -6.33253,0 -7.29929,-0.91688 -6.28965,-5.96509 l 0.58864,-2.94321 -5.81699,0.20415 -5.81699,0.20415 -0.75018,-4.27044 c -0.68262,-3.8858 -7.01867,-15.79222 -9.25496,-17.3915 -0.50908,-0.36406 -2.00495,-0.25156 -3.32417,0.25 -3.53817,1.34522 -4.22561,1.1546 -5.21429,-1.44582 -0.67174,-1.76682 -1.88404,-2.49022 -4.83688,-2.88628 -5.56097,-0.74588 -8.95907,-3.31306 -11.79608,-8.91161 L 740.96631,805 l -6.51454,0 c -4.82862,0 -6.66149,0.38295 -7.08238,1.47976 -0.92538,2.4115 -6.84689,5.52024 -10.51492,5.52024 -1.8752,0 -4.40381,-0.69647 -5.61914,-1.54772 -1.53093,-1.07231 -3.28546,-1.3459 -5.71194,-0.89069 -4.5589,0.85525 -5.41977,-1.16203 -3.17218,-7.43341 2.6034,-7.2642 2.08725,-16.12818 -0.93915,-16.12818 -0.75567,0 -1.64935,-1.2375 -1.98595,-2.75 -0.3366,-1.5125 -0.80924,-3.48626 -1.0503,-4.38614 -0.24107,-0.89987 0.74665,-3.04437 2.19493,-4.76556 C 704.30303,769.66272 707,761.887 707,755.56185 c 0,-4.48875 -0.40107,-5.73217 -2.34119,-7.25827 -1.28765,-1.01287 -2.91888,-2.95803 -3.62496,-4.32258 C 698.28751,738.67347 695.89377,737 691.04819,737 684.5966,737 682,734.93794 682,729.8145 c 0,-3.26769 0.70824,-4.85604 3.58527,-8.04056 3.47764,-3.84934 3.57574,-4.17457 3.26808,-10.83432 -0.30362,-6.57222 -0.17897,-7.00845 2.91473,-10.20034 3.26969,-3.37347 3.96949,-5.5582 2.33484,-7.28928 -0.49339,-0.5225 -1.20663,-2.85472 -1.58498,-5.18272 -0.63202,-3.88893 -0.47794,-4.32838 1.89708,-5.41052 2.1908,-0.99819 2.58498,-1.82704 2.58498,-5.43549 0,-2.34173 0.27314,-4.9695 0.60699,-5.83948 0.67712,-1.76454 3.93016,-2.13972 4.90309,-0.56548 0.98942,1.60092 2.62562,0.016 2.43828,-2.36182 -0.63446,-8.05312 0.13217,-12.44934 2.64351,-15.15912 2.18742,-2.36026 2.42484,-3.16329 1.52144,-5.14602 C 708.24743,646.44894 707.27233,646 704.01054,646 c -2.21779,0 -6.02491,-0.93662 -8.46029,-2.08138 l -4.42794,-2.08138 -4.4668,4.33138 c -2.45674,2.38226 -6.2805,5.8201 -8.49724,7.63965 -2.54269,2.08709 -4.54598,4.85485 -5.42706,7.49809 -1.23663,3.7099 -2.3035,4.70882 -9.31391,8.72065 -5.78879,3.31273 -8.38736,5.46399 -9.66575,8.0019 -2.69449,5.34922 -2.31053,8.32162 1.24845,9.66499 3.7242,1.40572 3.763,2.626 0.50268,15.8061 -2.61309,10.5636 -4.58777,13.5 -9.07852,13.5 -1.29484,0 -4.47386,0.71962 -7.06448,1.59916 -2.59062,0.87954 -8.11309,2.11767 -12.27215,2.75141 -6.9369,1.05701 -7.67907,1.4001 -8.97911,4.15084 -1.80408,3.81726 -2.80765,4.45565 -7.10842,4.5218 -2.82227,0.0434 -3.88977,0.67339 -5.51285,3.25339 -1.71492,2.72595 -2.81898,3.31557 -7.45885,3.98331 -2.99529,0.43106 -6.46118,1.44893 -7.70196,2.26192 -2.7877,1.82657 -5.52331,1.85009 -11.32634,0.0974 -2.475,-0.74754 -5.88142,-1.1535 -7.56982,-0.90212 -2.2814,0.33966 -3.85944,-0.20738 -6.14435,-2.13001 -2.14908,-1.80837 -4.2405,-2.5871 -6.94805,-2.5871 -2.46773,0 -5.18804,-0.89324 -7.49558,-2.46126 -1.99214,-1.3537 -5.1341,-2.51856 -6.98214,-2.58858 -7.26293,-0.2752 -23.50394,1.40057 -26.0604,2.68895 -3.6671,1.84811 -6.79966,1.73851 -6.79966,-0.2379 0,-0.87933 -1.4625,-2.97305 -3.25,-4.6527 -2.43946,-2.29227 -4.24759,-3.07817 -7.25,-3.15121 -3.53394,-0.086 -4.03519,-0.40035 -4.30203,-2.6982 -0.21883,-1.88433 0.40106,-3.06158 2.25,-4.27305 3.20019,-2.09685 3.23255,-3.41682 0.11283,-4.60293 -4.93209,-1.87518 -5.64191,-6.07705 -2.38863,-14.13977 3.31785,-8.22275 4.39532,-9.13051 9.93334,-8.36884 3.02949,0.41666 4.9227,0.24886 5.3707,-0.47602 0.38055,-0.61574 2.45408,-2.23194 4.60785,-3.59155 5.0897,-3.21299 5.06818,-5.71418 -0.10836,-12.59653 -3.78479,-5.03197 -4.01411,-5.7264 -3.85311,-11.66781 0.12464,-4.5999 -0.25833,-6.74691 -1.40867,-7.89726 -1.43982,-1.43981 -2.01463,-1.30087 -6.48444,1.5674 -4.89532,3.14132 -6.88864,3.6143 -10.80255,2.56324 -1.89865,-0.50987 -2.01068,-1.01654 -1.33144,-6.0219 0.45936,-3.38502 1.89192,-7.2596 3.76374,-10.17963 2.52604,-3.94062 2.93031,-5.39587 2.46298,-8.86588 -0.47489,-3.5261 -0.24001,-4.3222 1.55934,-5.28518 2.85278,-1.52676 2.66639,-3.88203 -0.57496,-7.26526 -3.04714,-3.18053 -2.54964,-4.2012 2.69341,-5.52581 2.63221,-0.66501 3.92802,-1.78354 5.22632,-4.51129 0.94948,-1.99487 3.53698,-5.53043 5.75,-7.8568 5.74299,-6.03713 5.39538,-9.5975 -1.20631,-12.35586 -2.01295,-0.84106 -4.05029,-2.22678 -4.52742,-3.07937 -0.5274,-0.94241 -1.52912,-1.29628 -2.55505,-0.90259 C 502.50429,586.4042 502.34117,592 504.5,592 c 2.36473,0 1.75306,2.65578 -1.13486,4.92742 -6.88712,5.41741 -11.07484,0.55181 -14.9942,-17.42134 -0.68018,-3.11913 -1.58226,-4.32907 -4.11852,-5.52404 -1.78617,-0.84157 -3.90753,-2.47233 -4.71413,-3.62391 -0.8066,-1.15158 -2.81604,-2.36368 -4.46543,-2.69356 -2.22883,-0.44576 -3.20097,-1.34527 -3.78587,-3.50299 C 470.57349,561.52948 463.80964,553 462.43588,553 c -0.31313,0 -2.17714,1.22634 -4.14225,2.7252 -2.93624,2.23958 -4.83996,2.79472 -10.68328,3.11529 -5.89945,0.32365 -7.78253,0.88136 -11.05735,3.2748 -5.14736,3.762 -7.71296,3.63843 -12.40143,-0.59732 -2.1198,-1.91511 -4.12514,-3.21107 -4.45631,-2.8799 -1.27297,1.27297 -5.40519,-0.70601 -6.50238,-3.11409 -1.29709,-2.8468 -3.34494,-3.25061 -5.19288,-1.02398 -1.70953,2.05985 -4.15935,1.88242 -9.44141,-0.6838 -4.13745,-2.01012 -4.63662,-2.05662 -6.27675,-0.58461 -0.98001,0.87955 -3.49493,1.91714 -5.5887,2.30575 -4.25536,0.78982 -6.13671,3.06514 -7.10337,8.59088 -0.91789,5.247 -4.91443,9.2536 -8.38254,8.40365 -3.94521,-0.96688 -4.68292,-2.00381 -9.27135,-13.03187 l -4.16069,-10 1.6431,-9.22936 c 1.34071,-7.53084 1.44926,-10.75143 0.58985,-17.5 -1.57923,-12.40106 -2.52397,-15.54635 -6.35336,-21.15213 -1.92309,-2.81518 -4.29048,-6.80601 -5.26087,-8.86851 -1.92665,-4.095 -3.00767,-4.50937 -5.95278,-2.2818 -2.78129,2.10366 -5.97616,1.86469 -7.59128,-0.56782 -1.32649,-1.99779 -1.78103,-2.04899 -9.37197,-1.05556 -4.38784,0.57424 -8.98491,1.34513 -10.21573,1.71308 -4.37615,1.30826 -3.64454,-3.00186 2.5035,-14.7487 0.54769,-1.04646 -7.38531,-3.16913 -9.21701,-2.46624 -0.88083,0.33801 -2.47362,2.64912 -3.53953,5.1358 L 303.07107,483 l -8.51248,0 c -8.19545,0 -8.57766,0.10242 -10.26244,2.75 -3.54732,5.5745 -5.39944,5.57022 -10.72626,-0.0248 -2.23844,-2.35114 -7.96409,-6.86376 -12.72367,-10.02805 -4.75957,-3.16429 -9.00326,-6.52812 -9.43042,-7.47519 -0.42716,-0.94707 -1.03356,-8.98787 -1.34756,-17.86844 -0.45544,-12.88082 -0.89901,-16.52136 -2.19315,-18 -0.89223,-1.01943 -2.17854,-3.65351 -2.85848,-5.85351 -0.67993,-2.2 -2.02047,-5.37576 -2.97897,-7.05725 -3.84455,-6.74442 -3.61724,-14.40201 0.48298,-16.27019 2.11785,-0.96496 2.26753,-1.42445 1.42308,-4.36887 -0.51904,-1.80977 -0.9437,-4.54508 -0.9437,-6.07847 0,-1.5334 -0.5625,-2.94581 -1.25,-3.13869 -12.44214,-3.49082 -13.13249,-3.9241 -12.36514,-7.76082 0.41253,-2.06267 0.0783,-3.04264 -1.28683,-3.77325 -1.01426,-0.54281 -2.34906,-2.9923 -2.96623,-5.44331 -0.63437,-2.51931 -2.16267,-5.27487 -3.51597,-6.33938 -2.34797,-1.84691 -5.86178,-9.08166 -7.05203,-14.51977 -0.95699,-4.37236 -5.24498,-3.20017 -13.48883,3.68736 -4.20496,3.51315 -4.34879,3.55115 -11.07384,2.92613 -5.95975,-0.5539 -7.18923,-0.36574 -9.81171,1.50163 -1.64899,1.17418 -3.92568,2.13488 -5.05931,2.13488 -1.13364,0 -3.44218,1.35 -5.13011,3 -1.68793,1.65 -4.06594,3.0203 -5.28448,3.0451 -4.98507,0.10149 -7.96451,2.35287 -9.2465,6.98699 -1.14225,4.12898 -2.40824,7.90881 -4.61824,13.78853 -0.81647,2.1722 -1.2393,2.27873 -6.61152,1.66581 -6.08842,-0.69463 -8.07106,-2.14136 -11.44275,-8.34974 -1.68103,-3.09533 -5.00658,-4.22384 -6.29651,-2.13669 -0.33992,0.55 -2.42609,1 -4.63594,1 C 116.37429,381 112,376.76125 112,371.44159 c 0,-2.61402 -0.69654,-4.35778 -2.35444,-5.89427 -1.29495,-1.20012 -2.6792,-3.95172 -3.07612,-6.11467 -0.53077,-2.89236 -2.02416,-5.1832 -5.64555,-8.66018 C 96.639071,346.65852 96,345.52742 96,342.05765 c 0,-4.45081 -2.098927,-6.36755 -5.887795,-5.37674 -1.216127,0.31802 -3.936474,-0.19979 -6.045215,-1.1507 -3.559787,-1.60524 -4.012466,-1.61204 -6.3277,-0.095 C 72.780554,338.68426 67.675046,333.12452 66.77923,323.5 66.538749,320.91632 66.048989,320.45651 63.25,320.18664 59.52008,319.82701 59.486275,319.7075 61.5,314 62.422768,311.3846 63,306.15467 63,300.40946 63,292.09382 62.780823,290.95307 61,290 c -2.280612,-1.22055 -2.68284,-4.80074 -0.627945,-5.58928 0.75463,-0.28958 2.77963,-2.48652 4.5,-4.88209 3.314684,-4.61562 3.899287,-8.41698 2.03208,-13.21353 -0.602726,-1.54831 -1.391109,-4.8401 -1.751963,-7.3151 -0.554615,-3.80395 -1.169181,-4.75638 -3.973182,-6.1575 -6.319377,-3.1577 -6.838129,-4.13447 -7.496738,-14.11578 C 53.347402,233.65202 52.219487,226.8 51.175774,223.5 c -1.043713,-3.3 -2.172831,-8.10981 -2.509152,-10.68846 l -0.611492,-4.68847 5.51867,-2.0648 c 6.935846,-2.59503 11.998916,-5.15242 21.159179,-10.68764 3.978138,-2.40385 7.803138,-4.37761 8.5,-4.38614 0.696861,-0.009 4.417021,-1.79901 8.267021,-3.97885 3.85,-2.17984 10.7465,-5.7595 15.32557,-7.9548 4.57906,-2.19529 10.42906,-5.52807 13,-7.40617 2.57093,-1.8781 8.72443,-5.78174 13.67443,-8.67476 8.29181,-4.84613 18.32888,-12.30621 21.18347,-15.74466 0.6509,-0.78404 1.6634,-1.12891 2.25,-0.76637 0.58659,0.36253 1.06653,0.20462 1.06653,-0.35092 0,-0.55554 3.0375,-2.6645 6.75,-4.68657 13.18159,-7.17956 24.9636,-14.35506 30.90875,-18.82412 8.47652,-6.37191 25.2453,-14.59727 29.759,-14.59727 3.1579,0 4.03101,-0.57819 6.79536,-4.5 3.47559,-4.930864 5.52694,-5.549716 8.28689,-2.5 2.14732,2.37276 4.40048,2.54251 7.05887,0.5318 1.06762,-0.8075 3.29113,-1.48347 4.94113,-1.50214 1.65,-0.0187 5.50566,-1.354771 8.56814,-2.969109 3.06247,-1.614338 9.58747,-3.92048 14.5,-5.12476 4.91252,-1.204281 9.21573,-2.634769 9.56267,-3.178863 0.9879,-1.549256 5.13634,13.042512 4.46662,15.710912 -0.32827,1.30791 -1.72198,3.71516 -3.09714,5.34944 -3.23149,3.84042 -3.15095,6.47109 0.44065,14.39219 3.66137,8.07498 16.12803,21.15432 21.11383,22.15148 4.99819,0.99964 13.32393,0.7516 16.92654,-0.50428 l 3.27976,-1.14333 -0.49716,-8.71931 c -0.27343,-4.79563 -0.086,-9.45397 0.41647,-10.35187 0.82509,-1.47435 1.19243,-1.42641 3.79094,0.49476 l 2.87733,2.1273 2.72901,-2.14665 c 2.46926,-1.94232 2.94147,-2.00744 4.96106,-0.68416 C 345.29454,127.2391 346,126.60726 346,122.33333 346,120.5 346.38248,119 346.84996,119 c 1.18595,0 8.25461,5.2617 10.56404,7.86357 2.01468,2.26977 10.13845,5.13643 14.55606,5.13643 1.43388,0 4.37235,0.9 6.52994,2 2.68676,1.36979 5.89718,2 10.18839,2 5.5393,0 6.45088,0.28292 7.86487,2.44094 0.89106,1.35994 2.78345,2.57781 4.27305,2.75 2.44912,0.2831 2.70009,0.72771 2.98805,5.29336 0.1729,2.74137 -0.23217,6.93631 -0.90014,9.32208 -1.10422,3.94388 -1.02943,4.52286 0.82363,6.37591 2.2867,2.2867 9.19628,3.42785 14.60808,2.41259 2.11282,-0.39637 5.11174,-2.24354 7.66454,-4.72095 5.10945,-4.95855 7.11205,-4.13664 4.68717,1.92371 -1.17415,2.9345 -1.28412,4.21588 -0.4347,5.0653 2.32233,2.32233 4.44961,1.17826 6.16603,-3.31613 2.1832,-5.71662 5.10503,-6.86899 8.05044,-3.17509 1.15265,1.44555 2.54762,2.62828 3.09995,2.62828 0.55232,0 3.01042,-2.06109 5.46243,-4.58021 5.66975,-5.82489 8.7529,-7.41979 14.34345,-7.41979 5.15912,0 9.25254,-1.34139 12.11476,-3.96995 1.1,-1.0102 5.15,-3.52377 9,-5.58571 11.5565,-6.1893 34.18453,-28.83092 38.13536,-38.15827 0.74874,-1.76767 2.20264,-3.664185 3.23089,-4.214488 1.02825,-0.550303 2.12931,-2.299406 2.44681,-3.886896 l 0.57727,-2.886345 12.78086,-0.710115 12.78085,-0.710115 2.52398,3.051442 c 3.64666,4.408738 15.16705,7.487717 20.44219,5.463458 C 582.4855,98.983456 583,97.520691 583,94.895892 c 0,-3.001752 -0.76633,-4.747165 -3.35568,-7.643011 -4.40614,-4.927673 -5.06984,-6.349063 -7.16745,-15.349953 -2.25564,-9.679044 -1.63349,-12.366104 3.23524,-13.972929 2.04215,-0.673971 5.40211,-2.448985 7.46657,-3.944476 2.06447,-1.49549 5.48239,-2.995522 7.59538,-3.333403 2.21299,-0.353871 4.84509,-1.682272 6.20819,-3.133225 C 599.16444,45.196054 600.03556,45 608.17431,45 c 10.07741,0 9.79169,-0.366672 7.81918,10.034335 -0.88104,4.64572 -0.73961,5.858663 1.13459,9.730236 2.00335,4.138379 2.34152,4.38167 5.25651,3.78172 8.226,-1.693043 9.23813,-1.705811 10.54345,-0.133001 C 633.99829,69.702868 636.5194,70 646.39097,70 l 12.14608,0 6.34855,-12.75 c 3.49171,-7.0125 7.71584,-14.478102 9.38697,-16.590227 2.94425,-3.721223 3.18075,-3.818882 7.63159,-3.151436 6.27274,0.940655 13.99866,3.990591 15.66028,6.182161 1.96161,2.587215 1.76908,4.198902 -1.15855,9.698445 -2.74857,5.163159 -2.8201,8.301942 -0.32645,14.322892 0.73162,1.766509 1.02921,3.512848 0.6613,3.880754 -0.3679,0.367905 -2.59758,0.112315 -4.95483,-0.567979 -2.35725,-0.680294 -6.00818,-1.464716 -8.11318,-1.743159 -3.71627,-0.491577 -3.81778,-0.423459 -3.5,2.348757 0.48305,4.213968 4.45348,5.830145 10.91728,4.443908 11.28494,-2.420187 23.62723,-0.266087 27.98282,4.883842 C 720.48788,82.631081 721.86745,84 722.13855,84 c 0.27109,0 5.97582,-5.409408 12.67717,-12.020906 C 746.62706,60.326129 747,59.827095 747,55.675261 c 0,-3.531879 0.57826,-4.843403 3.29761,-7.479094 4.26263,-4.131508 6.31303,-4.063799 8.12307,0.268242 1.01839,2.437346 2.28233,3.650745 4.26342,4.092945 5.49034,1.225498 6.82435,1.725038 7.55059,2.827427 0.40408,0.613371 0.74158,5.526066 0.75,10.917101 0.0129,8.234155 -0.32987,10.401644 -2.14285,13.551769 -2.94255,5.112798 -2.10729,7.536234 5.16803,14.994456 C 781.20308,102.22216 782,104.01913 782,112.8651 c 0,3.90492 0.50424,7.23914 1.2,7.9349 1.77121,1.77121 6.71198,1.4229 11.6592,-0.82196 6.45726,-2.93006 8.34229,-2.56798 13.01344,2.49962 2.27005,2.46271 4.12736,4.93288 4.12736,5.48927 0,0.55639 -0.89977,3.37894 -1.9995,6.27234 -2.45597,6.46174 -2.50721,8.34931 -0.2505,9.22864 0.9625,0.37504 7.45559,0.93971 14.42909,1.25483 l 12.67908,0.57294 2.90745,-2.90746 c 1.5991,-1.5991 3.12463,-3.55897 3.39007,-4.35528 0.38926,-1.16778 0.91441,-1.04555 2.71493,0.6319 2.08488,1.94236 10.71237,4.33516 15.63086,4.33516 1.19236,0 3.32818,-1.30219 4.74627,-2.89375 1.41809,-1.59156 4.18662,-3.42453 6.15231,-4.07327 2.45206,-0.80925 4.32132,-2.43277 5.95475,-5.17193 1.76345,-2.95717 2.53568,-3.58882 2.97808,-2.43593 0.32851,0.85607 3.40048,2.91438 6.82662,4.57402 10.41786,5.04648 13.84049,9.62592 13.84049,18.5184 0,4.98682 1.61964,8.92328 4.88869,11.88173 1.1514,1.042 3.23882,3.84897 4.63871,6.2377 1.69633,2.89457 3.45037,4.5489 5.25893,4.96001 1.49252,0.33927 6.08867,1.44959 10.21367,2.46739 9.19825,2.26956 13.10825,2.51713 24,1.51957 l 8.5,-0.77851 4.87217,3.35783 c 3.33831,2.30071 5.22724,4.45639 6,6.84729 1.08656,3.36176 1.32799,3.50079 6.59752,3.79933 6.40783,0.36303 8.03031,1.41844 8.03031,5.22367 0,2.72731 -1.56235,4.44253 -8.43755,9.26313 -3.35264,2.35074 -3.22571,3.81863 0.51423,5.94719 2.24167,1.27583 2.97805,2.34939 2.74367,4 -0.25901,1.82416 -1.13052,2.36426 -4.55178,2.82089 -2.32728,0.31062 -4.55755,0.89088 -4.95614,1.28948 -0.3986,0.39859 0.10529,2.26594 1.11974,4.14967 1.66996,3.10092 1.70118,3.64363 0.32996,5.73637 -0.83297,1.27128 -3.14522,3.18962 -5.13831,4.26297 -2.76281,1.48788 -3.62382,2.58134 -3.62382,4.60218 0,1.62364 -0.87176,3.25017 -2.25,4.19803 l -2.25,1.54741 2.25,1.63127 c 2.58201,1.87198 2.90213,5.35322 0.85679,9.31752 -0.76627,1.48519 -2.00377,5.38434 -2.75,8.66477 -1.10105,4.84021 -2.15786,6.72041 -5.60679,9.97517 -4.58007,4.32222 -5.63594,7.22097 -2.25,6.17703 1.1,-0.33915 2.9,-0.89411 4,-1.23326 1.74077,-0.53671 2,-0.15551 2,2.94098 0,1.95669 -0.38469,3.79537 -0.85486,4.08595 -0.47017,0.29058 -2.11242,4.02964 -3.64943,8.30902 -3.4735,9.67096 -3.81247,10.09898 -8.29565,10.47485 -3.40874,0.28579 -3.70128,0.57849 -4.46532,4.46777 -0.90741,4.61907 -2.09409,5.91093 -8.11849,8.83806 l -4.11625,2 0,7.43978 0,7.43978 5.5,4.4544 c 3.025,2.44993 5.99874,5.35101 6.60831,6.44686 0.67158,1.20733 0.9471,5.38652 0.6992,10.60582 -0.68509,14.42385 -0.68243,15.07178 0.0651,15.81932 0.39781,0.39782 1.48921,0.17385 2.42533,-0.49769 3.16612,-2.27129 4.48908,-2.5384 7.30603,-1.47512 2.63293,0.99382 2.87528,0.85969 3.86496,-2.13908 0.58074,-1.75966 2.39593,-4.75068 4.03375,-6.64672 2.88726,-3.34246 3.02379,-3.38829 4.48758,-1.50622 0.83035,1.06762 1.50972,2.43146 1.50972,3.03076 0,0.5993 1.34565,1.59756 2.99034,2.21836 1.67516,0.6323 3.42351,2.26806 3.97525,3.71924 1.22716,3.22769 4.92771,3.47089 7.61586,0.50051 1.53025,-1.69091 2.62146,-1.97326 5.71456,-1.47866 2.69247,0.43055 4.67336,0.10911 6.69799,-1.08687 2.38257,-1.40742 3.14293,-1.47572 4.44042,-0.39889 0.86107,0.71462 1.56558,2.32106 1.56558,3.56988 0,4.08983 3.55042,3.98354 13.00002,-0.3892 5.9796,-2.76702 8.7784,-2.70673 10.1109,0.21781 1.0088,2.21413 1.4695,2.31831 8.311,1.87925 6.9624,-0.44682 7.3269,-0.35809 9.4105,2.29079 1.3885,1.76514 2.1676,4.16851 2.1676,6.68649 0,7.2284 0.6315,7.61233 11.8858,7.22571 6.9412,-0.23844 10.22,0.0228 10.8689,0.86612 0.511,0.66416 1.9741,4.52416 3.2513,8.57776 1.8623,5.91098 3.3913,8.52501 7.7222,13.20298 2.9701,3.20804 6.3153,6.12324 7.4337,6.47823 1.5582,0.49453 1.8939,1.20691 1.4359,3.04702 -2.0005,8.03724 -2.1582,7.40158 1.8353,7.40158 2.0164,0 5.0678,0.72477 6.7808,1.61059 2.3581,1.21945 4.5317,1.45025 8.9503,0.95034 l 5.8358,-0.66024 0,2.89467 c 0,1.60074 -0.8724,3.68415 -1.9516,4.66084 -1.3359,1.20895 -2.0457,3.35494 -2.25,6.80199 -0.3625,6.11739 -2.5491,8.18237 -5.6719,5.35632 -1.9432,-1.75861 -2.038,-1.70839 -3.9878,2.11366 -1.0986,2.15329 -4.0542,5.60047 -6.568,7.6604 -5.1875,4.25072 -5.7117,6.6338 -1.9951,9.06903 2.2626,1.48248 2.4976,2.14992 1.9331,5.49095 -0.5492,3.25045 -0.1257,4.61127 2.9127,9.36119 1.9555,3.05683 3.9974,5.83105 4.5376,6.16493 0.5403,0.33389 2.2612,-0.0543 3.8243,-0.86263 3.6578,-1.89151 14.7361,-2.49265 16.342,-0.88676 0.7563,0.75629 2.7524,0.97909 5.4542,0.60877 3.6848,-0.50506 4.6152,-0.23025 6.8767,2.03121 2.3302,2.33028 2.5464,3.13445 1.9833,7.37902 l -0.6319,4.76372 4.6205,2.24481 c 5.9886,2.9095 7.3249,6.03099 5.2429,12.24719 -0.829,2.475 -1.7197,6.36373 -1.9794,8.64163 -0.2597,2.27789 -1.6466,5.86985 -3.0819,7.98213 -3.9436,5.80349 -3.4778,7.48019 3.8846,13.98424 6.6545,5.87864 10.5057,11.98674 10.5057,16.66241 0,2.21905 -0.5512,2.74238 -3.4644,3.28888 -1.9054,0.35746 -4.0059,1.30242 -4.6677,2.09991 -2.7678,3.33496 -4.8131,3.56472 -7.9836,0.89686 -1.9557,-1.64555 -4.2499,-2.55606 -6.4407,-2.55606 -2.991,0 -3.6698,0.51445 -5.6072,4.25 -1.2124,2.3375 -2.5348,6.94159 -2.9386,10.23132 -0.9366,7.62927 -3.8191,10.51868 -10.4934,10.51868 -5.6444,0 -12.1152,3.22019 -13.6456,6.79073 -2.4717,5.76651 -4.8007,8.20927 -7.8269,8.20927 -3.3318,0 -4.0375,2.4711 -1.2812,4.48653 1.1278,0.82468 1.8916,3.55204 2.4112,8.61024 0.4183,4.07178 0.913,8.30323 1.0993,9.40323 0.2908,1.71691 -0.2274,2.00696 -3.6612,2.04919 -10.9384,0.13451 -10.8848,0.0586 -7.2502,10.27719 l 2.2502,6.32638 -2.8058,2.42362 c -5.1054,4.41008 -7.9994,2.9645 -9.1617,-4.57638 -1.4973,-9.71487 -2.4474,-12 -4.9895,-12 -1.6428,0 -3.0522,1.08789 -4.5508,3.51265 -4.5888,7.42484 -10.3926,6.75781 -14.2438,-1.63704 -2.3498,-5.12205 -4.0142,-5.89818 -7.3073,-3.40741 -1.0676,0.8075 -3.8215,1.4825 -6.1197,1.5 -5.8653,0.0446 -7.3214,1.86812 -7.3214,9.16897 0,9.62711 -3.7346,14.86283 -10.6015,14.86283 -3.6938,0 -4.6569,0.4901 -7.3257,3.72784 -2.13839,2.59422 -3.07452,4.79892 -3.0784,7.25 -0.0106,6.69334 -1.85624,11.07803 -5.14577,12.22476 -3.1715,1.1056 -3.19802,1.36933 -0.7497,7.45599 1.19619,2.97379 1.04453,3.48672 -2.59217,8.76705 -2.12448,3.08465 -5.40245,6.78288 -7.28436,8.21828 -2.91853,2.22608 -3.33479,3.04424 -2.83082,5.56407 0.32496,1.62483 1.49479,4.10342 2.59962,5.50798 2.8626,3.63921 2.56522,4.69417 -2.49122,8.83754 -2.475,2.02808 -4.5,4.33699 -4.5,5.13092 0,1.02334 -0.93401,1.35212 -3.20881,1.12954 -2.81373,-0.27531 -3.318,0.0554 -4.09566,2.68603 -1.10736,3.74593 -3.90013,10.15129 -7.94818,18.22952 -1.7169,3.42623 -2.91571,6.43546 -2.66401,6.68716 0.25171,0.2517 2.55427,1.35636 5.11681,2.45479 5.13976,2.20316 7.0845,4.82928 6.6115,8.92798 -0.31643,2.74194 -1.13162,2.99269 -5.45134,1.67679 -2.00537,-0.61089 -2.18441,-0.2066 -2.85189,6.43993 -0.39171,3.90045 -1.11635,7.34152 -1.61031,7.6468 -1.00422,0.62064 -1.20398,12.69378 -0.26782,16.18703 0.73181,2.73076 4.92499,3.04846 9.43734,0.71503 2.74236,-1.41813 3.01591,-1.3991 3.59382,0.25 3.63827,10.38212 6.72407,17.32389 8.35839,18.80293 1.52806,1.38287 1.98016,3.08086 1.98016,7.43703 0,7.19605 1.16368,8.471 5.43272,5.9522 3.21404,-1.89632 3.2298,-1.8953 5.32881,0.34543 3.84562,4.10526 4.53415,7.53289 2.25421,11.22191 -1.12453,1.81954 -2.01574,4.99668 -2.01574,7.1861 0,3.76402 0.17385,3.97318 4.25,5.11313 2.33752,0.65372 5.34042,2.04525 6.67312,3.09228 l 2.4231,1.90371 -1.8234,5.86512 c -1.0029,3.22582 -3.1058,7.34329 -4.6731,9.14993 -1.56737,1.80663 -2.84972,4.00631 -2.84972,4.88817 0,0.88185 -1.83339,3.59236 -4.07419,6.02334 -4.27754,4.64058 -4.23986,6.43446 0.1645,7.83235 4.09115,1.29849 0.97693,9.64349 -5.61441,15.0446 -2.63648,2.1604 -4.35064,4.31079 -4.05351,5.08508 C 984.78177,920.59487 984.04083,921 981.96862,921 980.33588,921 979,920.61662 979,920.14804 c 0,-0.46858 -3.2324,-2.34187 -7.18311,-4.16287 l -7.18311,-3.31091 -1.56689,2.29118 c -0.86179,1.26015 -2.81296,3.62663 -4.33594,5.25885 -2.67216,2.86381 -2.98416,2.9427 -8.91623,2.25421 -3.38095,-0.39241 -7.53191,-1.11059 -9.22435,-1.59598 -4.89366,-1.40348 -8.59963,-1.03992 -12.22234,1.19904 -3.21019,1.98401 -3.36803,2.35893 -3.36803,8 l 0,5.91844 -3.25,-0.0153 c -3.88286,-0.0183 -4.6593,-0.50098 -7.61627,-4.73469 -3.46142,-4.95596 -7.86967,-4.57183 -14.34495,1.25 -3.24057,2.91355 -5.93646,4.50481 -7.64693,4.51365 -5.27648,0.0273 -6.95772,1.04789 -7.83469,4.75609 -0.93461,3.95192 -1.95214,4.66321 -4.52753,3.16491 z M 883,941.2 c 0,-3.78121 1.67747,-5.2 6.14808,-5.2 3.02996,0 4.89924,-0.958 9.7562,-5 4.55549,-3.79112 6.80447,-4.9963 9.30191,-4.98469 3.92861,0.0183 4.6982,0.49395 7.66008,4.73469 1.50407,2.15347 3.09043,3.25 4.70182,3.25 2.24576,0 2.43191,-0.37593 2.43191,-4.91111 0,-4.25649 0.41015,-5.25622 3.07707,-7.50029 4.37487,-3.68121 7.12033,-4.07345 15.54873,-2.22145 4.08707,0.89807 9.21261,1.63285 11.39008,1.63285 3.52419,0 4.2334,-0.43462 6.45698,-3.957 3.90237,-6.18175 4.91744,-6.33256 14.07215,-2.09061 l 8.04502,3.72775 5.12752,-4.59007 C 990.71261,910.51375 995,903.98396 995,901.4757 c 0,-0.15403 -1.35,-0.75066 -3,-1.32586 -4.37368,-1.52467 -4.02115,-5.06156 1,-10.03278 2.2,-2.17812 4,-4.81707 4,-5.86433 0,-1.04725 1.11244,-2.94919 2.47209,-4.22651 1.35961,-1.27733 3.19111,-4.79574 4.06991,-7.8187 1.9036,-6.5482 1.4162,-7.34835 -6.11097,-10.03225 -4.6085,-1.6432 -4.95154,-2.00424 -5.24456,-5.51978 -0.19568,-2.34769 0.48409,-5.40924 1.80849,-8.14509 1.97473,-4.07924 2.01434,-4.59174 0.57064,-7.38354 -2.1261,-4.11143 -2.91931,-4.40476 -6.44277,-2.38257 -2.87303,1.64889 -3.15495,1.65216 -4.75205,0.0551 -1.06126,-1.06127 -1.86719,-3.87266 -2.14958,-7.49859 -0.28857,-3.70523 -1.11028,-6.52328 -2.27462,-7.80077 -1.00257,-1.1 -3.11895,-5.375 -4.70307,-9.5 -3.08694,-8.03827 -2.58839,-7.72719 -10.2991,-6.4264 -2.3806,0.4016 -3.9165,0.15809 -4.64772,-0.73689 -1.14332,-1.39937 -2.02337,-17.24072 -1.10201,-19.83671 1.57996,-4.45167 2.57529,-10.84997 2.08209,-13.38438 -0.52931,-2.71999 -0.39646,-2.85628 2.33096,-2.39143 1.59075,0.27112 3.74712,0.85559 4.79195,1.29881 1.69349,0.71839 1.82043,0.49014 1.1696,-2.10298 -0.96864,-3.85937 -2.1671,-5.17015 -5.38838,-5.89334 -1.47449,-0.33102 -3.8059,-1.47045 -5.1809,-2.53205 l -2.5,-1.93019 1.84408,-3.28222 c 4.29702,-7.64814 8.30882,-16.54262 9.14564,-20.27663 C 967.37699,732.54647 968.77007,731 971.44922,731 973.84262,731 983,723.20502 983,721.1677 c 0,-0.68823 -0.9,-2.21736 -2,-3.39807 -2.78343,-2.98767 -2.68594,-9.05267 0.18856,-11.73067 C 982.39227,704.91753 983.66747,704 984.02234,704 985.3066,704 992,693.30105 992,691.24824 c 0,-1.15796 -0.70786,-2.81324 -1.57302,-3.6784 -2.26347,-2.26347 -1.39595,-4.86239 2.144,-6.42305 2.37688,-1.04789 3.33561,-2.34848 4.24922,-5.76435 0.64889,-2.42613 1.1798,-5.65456 1.1798,-7.17428 0,-5.46708 4.6298,-10.20816 9.9686,-10.20816 7.0137,0 11.0314,-5.7185 11.0314,-15.70113 0,-6.91688 1.0391,-8.29887 6.2398,-8.29887 2.1119,0 5.5959,-0.89587 7.7422,-1.99081 4.8882,-2.4938 6.5434,-1.86809 8.8561,3.34804 3.5483,8.00279 7.6595,8.54485 12.4024,1.63524 5.25,-7.64845 9.9066,-4.43288 11.6092,8.01662 0.9554,6.98611 1.7643,8.12176 4.9225,6.91046 3.4905,-1.33882 3.7828,-3.71636 1.3058,-10.6229 -1.251,-3.48818 -2.0436,-6.94384 -1.7614,-7.67924 0.6445,-1.67952 8.5343,-3.73067 11.4337,-2.97247 2.0358,0.53239 2.1112,0.35904 1.2104,-2.78198 -0.5284,-1.84237 -0.9607,-5.45808 -0.9607,-8.03493 0,-2.83126 -0.5935,-5.27872 -1.5,-6.18517 -0.825,-0.825 -1.5,-2.88215 -1.5,-4.57143 0,-2.82824 0.2701,-3.07143 3.4108,-3.07143 3.0522,0 3.6394,-0.47232 5.5858,-4.49302 3.1337,-6.47335 9.6794,-10.50698 17.0505,-10.50698 5.482,0 7.9529,-2.65116 7.9529,-8.53324 0,-5.62082 4.1048,-14.17589 7.4034,-15.43003 2.989,-1.13641 9.6704,0.34384 10.8195,2.39702 1.2148,2.17085 2.5113,1.96772 5.9595,-0.93375 1.6341,-1.375 3.8365,-2.5 4.8943,-2.5 1.4327,0 1.922,-0.70146 1.9182,-2.75 -0.01,-3.73688 -3.4932,-8.99723 -9.4891,-14.31808 -8.7133,-7.7323 -9.1323,-9.08394 -4.7887,-15.44979 1.5795,-2.31485 2.9935,-6.07558 3.3773,-8.98213 0.3631,-2.75 1.2341,-6.38314 1.9355,-8.07364 1.9724,-4.75323 0.6825,-7.58738 -4.7474,-10.43077 l -4.7825,-2.50441 0.2921,-5.5882 c 0.3645,-6.97225 -0.9639,-8.36915 -7.2814,-7.65707 -3.1523,0.35531 -4.8228,0.083 -5.657,-0.92219 -1.3068,-1.57463 -10.0101,-1.07857 -15.0843,0.85976 -4.5091,1.72249 -6.9853,0.32225 -11.02,-6.23163 -3.167,-5.14456 -3.6573,-6.67582 -3.1509,-9.84223 0.5228,-3.26951 0.2667,-3.96794 -1.9995,-5.45277 -4.3715,-2.86434 -3.3893,-5.61921 4.0835,-11.45292 2.4546,-1.91614 4.6557,-4.69854 5.3276,-6.73454 0.8875,-2.68929 1.6897,-3.46939 3.5675,-3.46939 1.3323,0 2.4224,0.45 2.4224,1 0,0.55 0.675,1 1.5,1 1.1269,0 1.5,-1.205 1.5,-4.84501 0,-3.57502 0.5242,-5.31945 2,-6.65499 1.1,-0.99549 2,-2.64023 2,-3.65499 0,-1.60238 -0.847,-1.84501 -6.441,-1.84501 -3.5425,0 -6.7191,-0.45 -7.059,-1 -0.3399,-0.55 -2.5614,-1 -4.9366,-1 -5.6989,0 -7.3688,-1.88376 -5.7177,-6.44994 1.1937,-3.3011 1.1643,-3.35265 -5.6856,-9.9657 -6.3288,-6.10992 -7.1167,-7.34299 -9.7438,-15.24914 l -2.8583,-8.60169 -9.7127,0.5352 c -11.5757,0.63785 -12.8548,-0.16138 -13.6176,-8.5086 -0.6878,-7.5267 -1.2905,-7.97707 -10.1668,-7.59751 -7.0274,0.3005 -7.6306,0.16505 -8.548,-1.91965 -1.2898,-2.93071 -3.9403,-2.85227 -10.8734,0.32178 -7.4222,3.39801 -11.74116,3.04647 -13.08131,-1.06475 -1.34067,-4.11279 -1.15017,-4.03467 -4.90615,-2.01195 -2.75912,1.48589 -3.92408,1.61277 -6.51496,0.70958 -2.85338,-0.99469 -3.3086,-0.86549 -4.76107,1.35126 -2.51217,3.83405 -6.914,3.34849 -9.50851,-1.04889 -1.22155,-2.07037 -2.8504,-3.5 -3.98771,-3.5 -1.08042,0 -2.42165,-1.09515 -3.06174,-2.5 -0.6265,-1.375 -1.48419,-2.5 -1.90598,-2.5 -1.30876,0 -4.74228,4.95552 -5.93269,8.56248 -1.30563,3.95609 -1.17588,3.90438 -4.92798,1.9641 -2.605,-1.3471 -3.06435,-1.30423 -5.35806,0.5 -1.37984,1.08538 -3.14982,1.97342 -3.93329,1.97342 -1.88234,0 -3.86772,-6.58502 -2.81909,-9.3502 0.4484,-1.18239 0.83071,-5.87285 0.84958,-10.42324 l 0.0343,-8.27343 -4.5906,-3.72657 C 925.37508,336.03486 925,335.41753 925,328.02829 c 0,-7.39981 0.87252,-8.71371 8.27367,-12.45906 2.48244,-1.25624 3.96034,-2.79238 4.31921,-4.48945 C 938.84829,305.14309 939.80204,304 943.5,304 c 2.74514,0 3.7422,-0.50662 4.42809,-2.25 0.48687,-1.2375 1.85404,-4.725 3.03817,-7.75 1.18413,-3.025 2.8939,-6.94474 3.79949,-8.71052 1.88089,-3.66748 1.0523,-5.28146 -1.79766,-3.50163 C 949.6485,283.86097 948,283.28111 948,280.04031 c 0,-2.14437 1.04851,-3.92982 3.80615,-6.48128 2.7918,-2.58307 4.15438,-4.92572 5.1128,-8.79031 0.71866,-2.8978 2.15589,-7.23842 3.19385,-9.64584 2.41348,-5.59776 2.38485,-5.93901 -0.6128,-7.30483 -3.16934,-1.44405 -3.16934,-3.14639 0,-5.63939 1.49532,-1.17622 2.5,-2.98809 2.5,-4.5086 0,-1.92326 0.97108,-3.08787 3.98911,-4.7841 4.71628,-2.65069 5.69378,-4.9141 3.54112,-8.19947 C 966.82412,220.55644 970.07906,217 976.5651,217 c 3.30204,0 3.06741,-1.62156 -0.50169,-3.46721 -1.61512,-0.83521 -3.22891,-1.99156 -3.58619,-2.56965 -1.00242,-1.62196 2.14804,-5.70149 6.54808,-8.47911 C 982.21133,200.47277 983,199.38214 983,196.98746 983,194.08773 982.85971,194 978.22251,194 c -5.61743,0 -8.72022,-1.85187 -9.57399,-5.71412 -0.35154,-1.59033 -2.23214,-4.0027 -4.38217,-5.62132 l -3.76635,-2.83543 -11.63591,0.68908 c -10.61227,0.62847 -12.66399,0.44616 -23.32228,-2.07228 -8.70731,-2.05744 -12.05987,-3.29472 -13.15154,-4.85365 -2.63128,-3.75752 -7.30693,-10.03353 -9.59899,-12.8845 -1.68982,-2.10188 -2.39591,-4.63928 -2.85589,-10.26294 -0.73841,-9.02771 -2.14412,-10.85621 -12.20379,-15.87434 l -6.95925,-3.47153 -3.25425,3.45052 C 875.72826,136.44727 873.47152,138 872.50312,138 c -0.96839,0 -3.50406,1.575 -5.6348,3.5 -2.13074,1.925 -4.66029,3.49297 -5.6212,3.48438 -2.78781,-0.0249 -12.55994,-2.49951 -14.74773,-3.73455 -1.69441,-0.95652 -2.50445,-0.64218 -5.3104,2.06074 l -3.31102,3.18943 -13.08659,-0.33087 c -7.19763,-0.18198 -14.10667,-0.7187 -15.35342,-1.19272 -3.33107,-1.26647 -3.75227,-4.10496 -1.46878,-9.89822 2.78913,-7.07608 2.59211,-8.46992 -1.69702,-12.00539 -4.22729,-3.48448 -5.56749,-3.683 -10.61792,-1.5728 -1.9745,0.825 -5.83862,1.5 -8.58694,1.5 -6.24123,0 -7.0673,-1.28574 -7.0673,-11 0,-3.92232 -0.48119,-8.0306 -1.06931,-9.12951 -0.58812,-1.09892 -3.68588,-4.655533 -6.8839,-7.903591 -7.33108,-7.445791 -7.85011,-9.392669 -4.43089,-16.620303 2.53065,-5.349353 2.61754,-6.047227 1.7726,-14.235852 -0.84214,-8.161501 -1.01893,-8.626214 -3.3885,-8.907252 -5.10432,-0.605388 -7.78026,-2.339192 -9.14517,-5.925378 l -1.35772,-3.567287 -3.24855,2.73348 C 749.46817,50.783846 749,51.827686 749,55.687297 c 0,4.449519 -0.17225,4.681144 -12.94754,17.411107 C 728.93131,80.194282 722.65421,86 722.10335,86 c -0.55086,0 -2.15397,-1.510879 -3.56246,-3.357509 -2.21287,-2.901212 -3.62247,-3.586874 -10.37208,-5.045215 -6.06402,-1.310209 -8.80179,-1.459385 -12.24,-0.666936 C 684.6745,79.524273 678,77.06745 678,70.330906 l 0,-3.523933 4.75,0.446053 c 2.6125,0.245329 6.19533,1.055935 7.96183,1.801346 4.18675,1.766672 5.03572,0.736466 2.96739,-3.600856 -2.25407,-4.726837 -2.07859,-7.203763 0.84687,-11.953516 2.91057,-4.72559 3.12483,-7.610663 0.72391,-9.747647 C 693.30803,42.023865 683.87321,39 680.42209,39 c -3.48369,0 -7.95569,6.040053 -14.39342,19.440325 -3.24998,6.764887 -6.64777,12.583267 -7.55065,12.929734 C 657.57514,71.716527 651.98392,72 646.05307,72 c -9.47738,0 -11.11022,-0.257115 -13.48229,-2.122981 -2.6217,-2.062233 -2.80806,-2.073769 -6.51279,-0.403168 -5.14419,2.319704 -7.08187,1.732067 -9.83403,-2.982336 C 614.14677,62.933308 613.95639,61.65868 614.4703,54.75 l 0.5765,-7.75 -5.44161,0 c -2.99289,0 -6.10437,-0.254321 -6.91439,-0.565159 -0.82475,-0.316483 -2.95078,0.717079 -4.83179,2.348952 -1.88121,1.632044 -5.07191,3.183118 -7.25241,3.525558 -2.14136,0.336296 -4.84136,1.498961 -6,2.583699 -1.15863,1.084739 -4.2441,2.886567 -6.8566,4.004063 -4.39332,1.87924 -4.75,2.298435 -4.75,5.582448 0,5.590557 3.08851,15.699276 5.91804,19.369817 4.87425,6.322985 6.07144,8.656405 6.0767,11.843918 C 585.00089,99.428168 582.05159,102 577.7624,102 572.09901,102 562.94314,98.721133 560.50052,95.818243 558.14092,93.014023 558.06909,93 546.06456,93 L 534,93 l 0,2.42742 c 0,1.341566 -1.03183,3.242711 -2.30666,4.25 -1.26866,1.00242 -3.61932,4.29758 -5.22368,7.32258 -4.50068,8.48599 -27.17005,30.84244 -35.46966,34.98005 -3.575,1.78224 -7.96268,4.33887 -9.75039,5.68139 -4.79956,3.60432 -9.60821,5.33856 -14.8026,5.33856 -4.22649,0 -5.18854,0.50775 -11.3683,6 -3.71309,3.3 -7.42375,6 -8.24591,6 -0.82216,0 -2.09692,-1.125 -2.8328,-2.5 -2.0282,-3.78973 -3.95019,-3.02515 -6.2845,2.5 -2.19778,5.202 -3.87382,6.056 -7.78124,3.96482 -2.12903,-1.13943 -2.49989,-4.03942 -0.89908,-7.03056 1.42536,-2.66331 0.47786,-2.42773 -3.84382,0.95568 -4.24745,3.32529 -9.40976,4.49977 -15.65916,3.56262 -6.38989,-0.95822 -8.86853,-3.64951 -8.13068,-8.82821 2.10376,-14.76548 2.14077,-14.34633 -1.33406,-15.10953 -1.73956,-0.38208 -3.69962,-1.55421 -4.35569,-2.60475 C 394.73975,138.35363 393.33559,138 388.12749,138 c -4.46978,0 -7.32889,-0.56302 -9.50946,-1.87261 -1.71491,-1.02994 -5.14303,-2.17318 -7.61803,-2.54055 -9.08529,-1.34851 -11.80192,-2.59121 -17.16457,-7.85181 -5.27874,-5.17826 -5.33872,-5.20544 -5.64479,-2.55763 -0.4564,3.94828 -2.62492,5.40139 -5.86057,3.92713 -2.26171,-1.03051 -2.92117,-0.89785 -4.9332,0.99235 -2.19989,2.0667 -2.45457,2.09533 -4.8245,0.5425 C 331.19627,127.73772 329.83444,127 329.54609,127 c -0.28836,0 -0.2405,3.9979 0.10634,8.88422 l 0.63062,8.88421 -2.77863,1.82063 c -3.01542,1.97578 -15.40103,2.63594 -20.87164,1.11247 -4.84085,-1.3481 -17.30297,-14.69326 -21.20142,-22.70372 C 283.54411,121.11993 282,116.91419 282,115.65171 c 0,-1.26249 1.33748,-4.06309 2.97218,-6.22357 3.38283,-4.47087 3.67688,-7.16699 1.48366,-13.603723 l -1.54416,-4.531861 -9.20584,2.332729 c -5.06321,1.283001 -11.29174,3.467176 -13.84117,4.853722 C 259.31524,99.865553 255.91375,101 254.3058,101 c -1.60795,0 -3.79705,0.66069 -4.86467,1.4682 -2.96843,2.2452 -8.02026,1.89857 -10.46711,-0.7182 -2.08058,-2.225075 -2.11617,-2.227845 -3.21286,-0.25 -2.34607,4.23108 -7.4016,8.40679 -9.51044,7.85531 -2.81863,-0.73709 -21.66999,8.67984 -30.6445,15.30803 -3.90842,2.88658 -10.93122,7.3641 -15.60622,9.95003 -4.675,2.58592 -11.0457,6.21298 -14.15711,8.06013 -5.53698,3.28713 -5.63349,3.421 -4.54516,6.30431 1.51101,4.00312 0.30031,4.81029 -2.49645,1.66437 L 156.5,148.0536 l -6.65639,5.7232 c -3.66102,3.14776 -9.96102,7.49599 -14,9.66274 -4.03899,2.16674 -10.26861,6.03688 -13.84361,8.60029 -3.575,2.56342 -9.2,5.87811 -12.5,7.36599 -3.3,1.48788 -9.3898,4.69074 -13.532899,7.11747 -4.143094,2.42673 -9.334884,5.04801 -11.537309,5.82507 -2.202426,0.77706 -6.912621,3.17491 -10.467101,5.32855 -6.415931,3.88737 -14.379003,7.84581 -20.819556,10.34938 -3.284182,1.27663 -3.343429,1.40414 -2.736318,5.8893 0.341302,2.52142 1.514391,7.437 2.606865,10.9235 1.092475,3.48651 2.017946,9.33651 2.056603,13 0.09148,8.66934 0.758778,10.1367 6.005163,13.20504 3.307644,1.93446 4.58564,3.40562 5.219804,6.00876 0.461874,1.89591 1.543355,5.99404 2.403292,9.10696 1.935748,7.00729 1.391926,9.28101 -3.786798,15.83258 l -4.098468,5.18496 2.093361,1.95026 c 1.822922,1.69831 2.087691,3.07563 2.049468,10.66131 -0.02496,4.95414 -0.665389,10.43616 -1.484943,12.71104 -1.859877,5.16256 -1.834944,5.5 0.406391,5.5 2.674762,0 3.746339,1.72286 5.061746,8.13816 0.644061,3.14112 2.030395,6.42943 3.130252,7.42478 1.87504,1.69689 2.154699,1.70055 5.568201,0.0728 3.258292,-1.55377 3.813423,-1.5701 5.942944,-0.17478 1.291915,0.84649 4.379394,1.53908 6.861066,1.53908 3.685419,0 4.806377,0.44908 6.118111,2.45104 0.924122,1.41039 1.336346,3.30058 0.97091,4.45197 -0.478908,1.5089 0.703271,3.45671 4.807585,7.92118 4.09103,4.45001 5.61877,6.96263 6.15181,10.11766 0.42415,2.51056 1.37238,4.44152 2.35948,4.80484 2.43014,0.89444 3.11795,2.32124 3.13503,6.50331 0.0267,6.53388 6.53126,10.60763 11.61678,7.27547 3.86605,-2.53313 6.81724,-1.29355 9.25195,3.88607 1.14555,2.43706 2.43467,4.63525 2.8647,4.88487 0.43003,0.24962 3.36938,0.76742 6.53188,1.15068 5.42328,0.65723 5.75,0.57542 5.75,-1.43975 0,-1.17512 0.83852,-4.245 1.86338,-6.82196 1.02485,-2.57696 2.27287,-6.03538 2.77336,-7.68538 0.92497,-3.04935 5.90876,-6.35368 9.73124,-6.45197 1.0274,-0.0264 3.40556,-1.39803 5.2848,-3.04803 1.87925,-1.65 4.27543,-3 5.32486,-3 1.04942,0 3.5202,-0.9512 5.49062,-2.11377 3.05901,-1.80487 4.5042,-2.01508 9.88885,-1.43843 6.18703,0.66257 6.38785,0.60718 10.62065,-2.92922 5.27304,-4.4055 6.81272,-5.25467 10.02224,-5.52747 4.09495,-0.34806 5,-0.0704 5,1.53387 0,3.63827 4.18645,12.939 7.45021,16.55159 2.38303,2.63773 3.54979,4.90273 3.54979,6.89113 0,1.93848 0.69107,3.33178 2,4.0323 1.38094,0.73906 2,2.09382 2,4.37686 0,3.17633 0.23851,3.3787 6.05913,5.14104 3.33252,1.00901 6.43095,2.54276 6.8854,3.40833 0.45444,0.86557 1.13684,4.29855 1.51643,7.62883 0.6646,5.83079 0.59477,6.09852 -1.8854,7.22856 -3.45328,1.57342 -3.48396,7.02587 -0.0756,13.42853 1.375,2.58293 2.5,5.32483 2.5,6.0931 0,0.76828 1.22175,3.60139 2.715,6.29581 2.56425,4.62694 2.73561,5.75953 3.08624,20.39894 0.42986,17.94718 -0.19897,16.63614 11.75541,24.50871 4.43975,2.92381 9.30367,6.93045 10.80871,8.90365 3.32759,4.3627 5.81731,4.54422 8.6063,0.62744 2.00574,-2.81681 2.50555,-2.97424 10.31809,-3.25 L 301.5,481.5 l 1.71625,-3.43847 c 0.94393,-1.89116 2.58493,-4.30716 3.64667,-5.36889 1.78664,-1.78665 2.31911,-1.83081 7.14902,-0.59294 2.87022,0.73561 5.42194,1.86739 5.67047,2.51506 0.24854,0.64767 -0.92833,3.62319 -2.61526,6.61227 -3.71315,6.57934 -3.89668,8.23695 -0.81715,7.38045 1.2375,-0.34419 5.56302,-1.10265 9.61228,-1.68547 6.86178,-0.98764 7.51198,-0.91904 9.56445,1.00916 2.65112,2.4906 3.87885,2.56994 7.10073,0.45888 3.07042,-2.01182 5.20302,-1.2496 6.53114,2.33432 0.56572,1.5266 3.04038,5.71592 5.49925,9.3096 7.11301,10.39584 8.74465,23.25978 5.84713,46.09917 -0.50603,3.98875 -4.4e-4,5.96713 3.63516,14.22436 4.25956,9.67441 5.94606,11.41643 9.85231,10.17663 1.95428,-0.62026 3.27699,-3.23382 5.00293,-9.88539 1.14972,-4.43087 3.48539,-6.57152 7.21976,-6.61694 1.43833,-0.0175 3.75931,-0.9318 5.15773,-2.0318 2.59324,-2.03984 5.72713,-2.67488 5.72713,-1.16052 0,2.29874 9.23959,4.19991 10.5,2.16052 0.33992,-0.55 1.86924,-1 3.3985,-1 1.99541,0 3.10208,0.70587 3.91955,2.5 0.86075,1.88914 1.90148,2.5 4.2593,2.5 2.1775,0 3.96694,0.90641 5.92265,3 3.6004,3.85424 7.04831,3.85904 11.82989,0.0165 3.32457,-2.6717 4.35455,-2.95913 9.8543,-2.75 5.50818,0.20945 6.61785,-0.10169 10.75798,-3.01646 2.53897,-1.7875 4.95615,-3.25 5.37152,-3.25 1.25026,0 10.18631,11.10573 10.18631,12.65956 0,0.79337 1.55877,2.09379 3.46393,2.88982 1.90517,0.79603 3.946,2.34806 4.53519,3.44897 0.58918,1.10091 1.93789,2.00165 2.99711,2.00165 3.38994,0 5.63479,3.72847 7.28352,12.09719 0.87209,4.42661 2.30128,9.14063 3.17598,10.4756 1.80754,2.75864 5.19394,3.15942 8.10314,0.95901 1.7564,-1.32847 1.77459,-1.47122 0.19113,-1.5 -1.35407,-0.0246 -1.75,-0.89153 -1.75,-3.8318 0,-2.09 0.54,-4.34 1.2,-5 1.66441,-1.66441 5.74595,-1.50442 6.41981,0.25163 0.30638,0.7984 2.09086,1.95784 3.96552,2.57653 1.87466,0.61869 4.08486,2.09059 4.91157,3.27087 2.58584,3.69181 1.80387,6.5333 -3.23061,11.73923 -2.60353,2.6922 -5.22204,6.34529 -5.81889,8.11796 -0.75355,2.23806 -1.98095,3.49491 -4.01629,4.11264 -1.61211,0.48928 -3.53283,1.07987 -4.26827,1.31243 -0.96983,0.30668 -0.62645,1.26746 1.25,3.4975 3.11112,3.69735 3.21742,5.04086 0.58716,7.42121 -1.46732,1.3279 -2,3.07997 -2,6.57826 0,3.63105 -0.59805,5.47903 -2.50755,7.74835 -1.93631,2.30117 -4.49245,10.1588 -4.49245,13.80988 0,1.41902 7.19793,-0.0865 10.21481,-2.13649 7.38273,-5.01669 11.51726,-2.329 10.43782,6.78519 -0.6374,5.38182 0.009,7.20441 4.50086,12.69265 2.1358,2.60951 2.84651,4.5381 2.84651,7.72432 0,3.7852 -0.35303,4.42601 -3.25,5.89926 -1.7875,0.90902 -4.06595,2.5073 -5.06323,3.55173 -1.4991,1.56998 -2.66124,1.78647 -6.70809,1.24963 l -4.89487,-0.64932 -2.5419,5.7477 C 497.14386,699.66243 496,703.79087 496,705.6755 c 0,2.97089 0.46547,3.62108 3.5,4.88899 1.925,0.80431 3.5,1.99743 3.5,2.65136 0,0.65394 -1.4573,2.69253 -3.23844,4.5302 -2.6276,2.71099 -2.96657,3.50925 -1.7971,4.23203 0.79274,0.48994 2.70176,0.63872 4.24227,0.33061 2.29255,-0.45851 3.52609,0.14329 6.79621,3.31558 2.19741,2.13168 3.99568,4.47577 3.99617,5.2091 4.9e-4,0.73334 0.33839,1.15961 0.75089,0.94727 5.52767,-2.84539 9.20298,-3.6259 20.01129,-4.24973 11.99696,-0.69242 12.35651,-0.65188 16.67807,1.88072 2.70689,1.58635 5.92569,2.58841 8.3144,2.58841 2.86449,0 4.52015,0.66267 6.24624,2.5 1.92162,2.04547 3.29469,2.5 7.55219,2.5 2.86196,0 6.91389,0.71462 9.0043,1.58805 3.57751,1.49478 4.03986,1.47005 7.87213,-0.42107 2.23926,-1.10501 6.19319,-2.31838 8.78651,-2.69636 3.9653,-0.57796 5.03337,-1.22662 6.71628,-4.07893 1.75554,-2.97543 2.50246,-3.39169 6.08589,-3.39169 3.69608,0 4.21924,-0.32187 5.49812,-3.38265 1.48754,-3.5602 2.46147,-4.01464 10.98458,-5.12549 2.75,-0.35842 7.025,-1.2533 9.5,-1.98861 2.475,-0.73532 6.17303,-1.61704 8.21785,-1.95938 2.04482,-0.34234 4.36456,-1.26914 5.15498,-2.05956 C 651.85197,712.00517 656,695.74391 656,691.42447 656,689.39728 655.50841,689 653,689 c -3.35728,0 -3.68673,-1.33505 -2.05966,-8.34665 1.19521,-5.15054 4.23798,-8.18777 12.26899,-12.24664 5.86064,-2.96196 6.84314,-3.86624 7.76727,-7.1488 1.32822,-4.71798 3.07301,-6.76962 10.2734,-12.08016 3.1625,-2.33246 5.75,-4.66627 5.75,-5.18624 0,-0.51997 1.03894,-1.62614 2.30876,-2.45816 2.09767,-1.37445 2.66556,-1.33084 6.21144,0.47695 2.14648,1.09433 5.80039,1.9897 8.11981,1.9897 7.34697,0 9.70465,5.42481 4.85999,11.18237 -2.23365,2.65455 -2.5,3.86848 -2.5,11.39436 0,8.3712 -0.61686,9.79477 -3,6.92327 -2.51855,-3.03466 -4,-1.74693 -4,3.47695 0,4.20526 -0.38763,5.23093 -2.5,6.61501 -2.88861,1.89268 -3.4129,6.638 -1,9.0509 2.42138,2.42138 1.74438,5.31146 -2.02621,8.64968 -3.43319,3.03951 -3.51005,3.2681 -2.91348,8.66467 0.72824,6.58765 -0.53893,10.48908 -4.62395,14.23642 -3.12195,2.86388 -3.94199,7.40074 -1.73636,9.60637 0.66,0.66 3.11383,1.2 5.45295,1.2 5.75878,0 8.98816,1.65877 11.52865,5.92171 1.17287,1.96806 3.47547,5.01538 5.11689,6.77183 2.82339,3.02125 2.95509,3.53376 2.44122,9.5 -0.59365,6.89235 -3.50183,14.37622 -6.7173,17.28618 -1.63274,1.47761 -1.92181,2.58479 -1.41972,5.43783 0.34675,1.97035 1.42234,4.25745 2.39019,5.08245 2.54599,2.17019 3.42635,11.75239 1.50274,16.35625 -0.82259,1.96873 -1.49562,4.48432 -1.49562,5.59019 0,1.75034 0.30575,1.87137 2.36139,0.93476 1.82356,-0.83087 3.06492,-0.71211 5.45034,0.52144 5.0907,2.6325 9.28957,2.05847 13.91724,-1.90264 3.67737,-3.1477 4.68647,-3.5 10.02501,-3.5 6.55996,0 8.37078,1.19085 10.32197,6.78804 1.31007,3.75806 6.45138,7.21196 10.73538,7.21196 2.05343,0 3.60128,0.74762 4.65836,2.25 1.20261,1.70923 2.56717,2.25 5.67763,2.25 3.98975,0 4.20551,0.17914 8.43112,7 2.68975,4.34173 4.35271,8.22084 4.37907,10.21482 0.0559,4.23126 2.49242,5.57371 7.3887,4.071 2.00865,-0.61647 3.97355,-0.79939 4.36645,-0.40649 0.39291,0.3929 0.73079,2.60579 0.75086,4.91752 L 791.5,851.5 l 6.24022,0.29746 c 4.9794,0.23737 6.45135,0.69197 7.28518,2.25 1.57574,2.94429 7.43729,2.63535 10.38702,-0.54746 2.76239,-2.98067 4.99544,-3.18349 6.79309,-0.61697 0.72541,1.03566 3.61682,3.6994 6.42535,5.91941 9.23618,7.30079 10.79328,11.88173 6.23794,18.35193 -1.91803,2.72429 -2.30941,6.86175 -0.97208,10.27621 0.68918,1.75963 1.15778,1.56038 5.29154,-2.25 2.49447,-2.29932 4.96643,-4.18058 5.49324,-4.18058 0.5268,0 1.936,1.125 3.13155,2.5 1.19555,1.375 3.09905,2.5 4.23,2.5 2.86221,0 6.97347,2.30307 10.10508,5.66072 4.36463,4.67967 7.85187,10.46514 7.85187,13.02658 0,1.32451 1.19762,3.51811 2.66137,4.87467 2.45219,2.27262 2.55326,2.66847 1.28594,5.03648 -1.24896,2.33371 -1.1743,2.72318 0.81201,4.23578 1.20309,0.91617 2.71968,3.20356 3.37021,5.08308 1.10323,3.1875 0.99599,3.57797 -1.59471,5.8064 l -2.77748,2.38909 1.99816,2.1936 c 1.09899,1.20648 2.53848,3.8811 3.19888,5.9436 1.42667,4.45567 4.04562,5.07065 4.04562,0.95 z"
     id="path3049"
     inkscape:connector-curvature="0" />
</svg>
