<?xml version="1.0" encoding="UTF-8" standalone="no"?>
<!-- Created with Inkscape (http://www.inkscape.org/) -->
<svg
   xmlns:dc="http://purl.org/dc/elements/1.1/"
   xmlns:cc="http://web.resource.org/cc/"
   xmlns:rdf="http://www.w3.org/1999/02/22-rdf-syntax-ns#"
   xmlns:svg="http://www.w3.org/2000/svg"
   xmlns="http://www.w3.org/2000/svg"
   xmlns:sodipodi="http://sodipodi.sourceforge.net/DTD/sodipodi-0.dtd"
   xmlns:inkscape="http://www.inkscape.org/namespaces/inkscape"
   id="svg1872"
   sodipodi:version="0.32"
   inkscape:version="0.44"
   width="614.22229"
   height="617.22229"
   version="1.0"
   sodipodi:docbase="C:\Documents and Settings\Nevit\Belgelerim"
   sodipodi:docname="chess-board.svg">
  <metadata
     id="metadata1877">
    <rdf:RDF>
      <cc:Work
         rdf:about="">
        <dc:format>image/svg+xml</dc:format>
        <dc:type
           rdf:resource="http://purl.org/dc/dcmitype/StillImage" />
      </cc:Work>
    </rdf:RDF>
  </metadata>
  <defs
     id="defs1875" />
  <sodipodi:namedview
     inkscape:window-height="573"
     inkscape:window-width="882"
     inkscape:pageshadow="2"
     inkscape:pageopacity="0.0"
     guidetolerance="10.0"
     gridtolerance="10.0"
     objecttolerance="10.0"
     borderopacity="1.0"
     bordercolor="#666666"
     pagecolor="#ffffff"
     id="base"
     showborder="false"
     inkscape:showpageshadow="false"
     inkscape:zoom="0.60513644"
     inkscape:cx="310.5"
     inkscape:cy="311.5"
     inkscape:window-x="66"
     inkscape:window-y="87"
     inkscape:current-layer="svg1872" />
  <path
     style="fill:black"
     d="M 1.3111574,615.91113 C -0.4370526,614.16292 -0.4370526,3.0593463 1.3111574,1.3111311 C 3.0593574,-0.43706569 611.16296,-0.43706569 612.91116,1.3111311 C 614.65937,3.0593463 614.65937,614.16292 612.91116,615.91113 C 611.16296,617.65933 3.0593574,617.65933 1.3111574,615.91113 z M 152.87434,577.32001 C 153.04704,554.81675 152.77713,542.35551 152.08915,541.07001 C 151.07855,539.18169 149.77057,539.11113 115.77598,539.11113 C 89.681119,539.11113 80.199118,539.42317 79.311158,540.31113 C 78.424028,541.19827 78.111158,550.54076 78.111158,576.14446 C 78.111158,595.1928 78.416618,611.08326 78.789968,611.4566 C 79.163308,611.82994 95.925806,612.01744 116.03996,611.87327 L 152.61116,611.61113 L 152.87434,577.32001 z M 305.61116,575.61113 L 305.61116,539.61113 L 268.11116,539.61113 L 230.61116,539.61113 L 230.34867,575.87317 L 230.08619,612.1352 L 267.84867,611.87317 L 305.61116,611.61113 L 305.61116,575.61113 z M 459.87434,577.32001 C 460.04704,554.81675 459.77713,542.35551 459.08915,541.07001 C 458.07771,539.18012 456.76357,539.11113 421.77598,539.11113 C 394.90334,539.11113 385.20037,539.42192 384.31116,540.31113 C 383.42402,541.19827 383.11116,550.54076 383.11116,576.14446 C 383.11116,595.1928 383.41649,611.08313 383.78968,611.45631 C 384.16286,611.8295 401.37536,612.017 422.03968,611.87298 L 459.61116,611.61113 L 459.87434,577.32001 z M 609.87427,576.72939 C 610.06356,551.63372 609.81585,541.46023 608.99133,540.46674 C 608.04859,539.33081 601.61547,539.13243 572.72822,539.34849 L 537.61116,539.61113 L 537.34867,575.87362 L 537.08619,612.1361 L 573.34867,611.87362 L 609.61116,611.61113 L 609.87427,576.72939 z M 75.529378,537.50414 C 76.932738,536.96562 77.111158,532.67919 77.111158,499.50414 L 77.111158,462.11113 L 41.218148,462.11113 C 9.4109075,462.11113 5.2560474,462.29119 4.7181474,463.69292 C 4.3843074,464.5629 4.1111574,481.1229 4.1111574,500.49292 C 4.1111574,526.55153 4.4232574,536.02323 5.3111574,536.91113 C 6.1970374,537.79701 15.337428,538.11113 40.229378,538.11113 C 58.774388,538.11113 74.659388,537.83799 75.529378,537.50414 z M 228.43422,536.86113 C 229.99593,535.71639 230.11729,532.5375 229.87535,499.11113 L 229.61116,462.61113 L 192.67791,462.34862 C 163.79552,462.14333 155.56996,462.36132 154.94322,463.34862 C 154.50243,464.043 154.13489,480.44149 154.12647,499.7897 C 154.11313,530.45045 154.31297,535.17008 155.68259,536.5397 C 157.05084,537.90796 161.7453,538.11113 191.99146,538.11113 C 218.20524,538.11113 227.14734,537.80441 228.43422,536.86113 z M 380.52937,537.50414 C 381.93275,536.96562 382.11116,532.67811 382.11116,499.49197 L 382.11116,462.08679 L 344.86116,462.34896 L 307.61116,462.61113 L 307.34865,499.54438 C 307.14336,528.42677 307.36135,536.65233 308.34865,537.27907 C 309.80575,538.20403 378.15014,538.41714 380.52937,537.50414 z M 534.43422,536.86113 C 535.99593,535.71639 536.11729,532.5375 535.87535,499.11113 L 535.61116,462.61113 L 498.17781,462.34878 C 468.89528,462.14355 460.56998,462.36129 459.94313,463.34878 C 459.50239,464.04307 459.13489,480.44149 459.12647,499.7897 C 459.11313,530.45045 459.31297,535.17008 460.68259,536.5397 C 462.0517,537.90881 466.79075,538.11113 497.49146,538.11113 C 524.10524,538.11113 533.14624,537.80522 534.43422,536.86113 z M 152.50417,459.52934 C 152.83802,458.65936 153.11116,442.2665 153.11116,423.10077 C 153.11116,392.75521 152.90818,388.051 151.53973,386.68256 C 150.17279,385.31562 145.54458,385.11113 115.97399,385.11113 C 94.453195,385.11113 81.269938,385.49097 80.045418,386.14631 C 78.187608,387.14058 78.111158,388.61619 78.111158,423.47965 C 78.111158,443.44363 78.411158,460.0778 78.777828,460.44446 C 79.144498,460.81113 95.746348,461.11113 115.67084,461.11113 C 147.78204,461.11113 151.96613,460.93145 152.50417,459.52934 z M 305.87367,423.67788 C 306.07896,394.79549 305.86097,386.56993 304.87367,385.94319 C 303.41666,385.01829 234.07246,384.80501 231.69295,385.71812 C 230.28957,386.25664 230.11116,390.54413 230.11116,423.73014 L 230.11116,461.13518 L 267.86116,460.87316 L 305.61116,460.61113 L 305.87367,423.67788 z M 459.50417,459.52934 C 459.83802,458.65936 460.11116,442.2665 460.11116,423.10077 C 460.11116,392.75521 459.90818,388.051 458.53973,386.68256 C 457.17103,385.31386 452.45367,385.11113 421.97399,385.11113 C 399.76387,385.11113 386.27305,385.48931 385.04542,386.14631 C 383.18761,387.14058 383.11116,388.61619 383.11116,423.47965 C 383.11116,443.44363 383.41116,460.0778 383.77783,460.44446 C 384.14449,460.81113 401.19635,461.11113 421.67084,461.11113 C 454.6939,461.11113 458.96572,460.93253 459.50417,459.52934 z M 609.50417,459.52934 C 609.83802,458.65936 610.11116,442.09936 610.11116,422.72934 C 610.11116,396.67073 609.79906,387.19903 608.91116,386.31113 C 608.02528,385.42525 598.88489,385.11113 573.99295,385.11113 C 555.44793,385.11113 539.56293,385.38427 538.69295,385.71812 C 537.28959,386.25664 537.11116,390.54307 537.11116,423.71812 L 537.11116,461.11113 L 573.00417,461.11113 C 604.81141,461.11113 608.96628,460.93107 609.50417,459.52934 z M 76.611158,346.11113 L 76.611158,308.61113 L 41.729418,308.34802 C 16.818178,308.16012 6.4565774,308.4095 5.4794174,309.22047 C 3.5938574,310.78535 3.4454274,381.0454 5.3237174,382.92369 C 6.2379074,383.83788 15.157658,384.07164 41.573718,383.87369 L 76.611158,383.61113 L 76.611158,346.11113 z M 229.00133,382.74347 C 229.81313,381.76531 230.0616,371.01429 229.87377,344.99347 L 229.61116,308.61113 L 193.11116,308.34694 C 159.68479,308.105 156.5059,308.22636 155.36116,309.78807 C 153.74801,311.98882 153.54858,379.19143 155.14634,382.17687 C 156.14024,384.03398 157.61105,384.11113 192.0239,384.11113 C 221.12241,384.11113 228.07984,383.8538 229.00133,382.74347 z M 381.61116,346.11113 L 381.61116,308.61113 L 344.61116,308.61113 L 307.61116,308.61113 L 307.34843,345.10676 C 307.20392,365.17935 307.30443,382.17241 307.57178,382.8691 C 307.95443,383.86628 315.88371,384.08 344.83451,383.87348 L 381.61116,383.61113 L 381.61116,346.11113 z M 534.91116,382.91113 C 536.63163,381.19066 536.63163,311.0316 534.91116,309.31113 C 534.02144,308.42141 524.22597,308.11113 497.02779,308.11113 L 460.34442,308.11113 L 459.74145,310.36113 C 458.66284,314.38593 459.03332,380.09717 460.14634,382.17687 C 461.14058,384.03463 462.61584,384.11113 497.44634,384.11113 C 524.31898,384.11113 534.02195,383.80034 534.91116,382.91113 z M 151.53973,306.5397 C 152.90935,305.17008 153.10919,300.45045 153.09585,269.7897 C 153.08743,250.44149 152.71984,234.04293 152.279,233.34846 C 151.65239,232.36135 143.52656,232.14312 115.04431,232.34846 L 78.611158,232.61113 L 78.346978,269.11113 C 78.105038,302.5375 78.226388,305.71639 79.788108,306.86113 C 81.073848,307.80358 89.917077,308.11113 115.73086,308.11113 C 145.52247,308.11113 150.17236,307.90708 151.53973,306.5397 z M 304.87367,307.27907 C 305.86097,306.65233 306.07896,298.42677 305.87367,269.54438 L 305.61116,232.61113 L 268.11116,232.61113 L 230.61116,232.61113 L 230.34865,269.54438 C 230.14336,298.42677 230.36135,306.65233 231.34865,307.27907 C 232.99757,308.32579 303.22475,308.32579 304.87367,307.27907 z M 458.53973,306.5397 C 459.90935,305.17008 460.10919,300.45045 460.09585,269.7897 C 460.08743,250.44149 459.71993,234.04307 459.27919,233.34878 C 458.65234,232.36129 450.32704,232.14355 421.04451,232.34878 L 383.61116,232.61113 L 383.34697,269.11113 C 383.10503,302.5375 383.22639,305.71639 384.7881,306.86113 C 386.07608,307.80522 395.11708,308.11113 421.73086,308.11113 C 452.43157,308.11113 457.17062,307.90881 458.53973,306.5397 z M 608.91116,306.91113 C 610.30288,305.51941 610.65275,235.51256 609.2788,233.34813 C 608.65244,232.36142 600.72606,232.14267 573.04411,232.34813 L 537.61116,232.61113 L 537.34865,269.54438 C 537.14336,298.42677 537.36135,306.65233 538.34865,307.27907 C 540.51095,308.65168 607.52002,308.30227 608.91116,306.91113 z M 76.873478,193.36113 L 76.611158,156.61113 L 41.178208,156.34813 C 13.496268,156.14267 5.5698774,156.36142 4.9435174,157.34813 C 4.0182974,158.80566 3.8050774,226.14991 4.7181474,228.52934 C 5.2560474,229.93109 9.4119975,230.11113 41.230468,230.11113 L 77.135798,230.11113 L 76.873478,193.36113 z M 229.61116,193.11113 L 229.61116,156.61113 L 192.67791,156.34862 C 163.79552,156.14333 155.56996,156.36132 154.94322,157.34862 C 154.01527,158.81043 153.80674,226.15426 154.72278,228.5414 C 155.26978,229.96687 159.25773,230.10756 192.47278,229.87319 L 229.61116,229.61113 L 229.61116,193.11113 z M 381.87348,193.36113 L 381.61116,156.61113 L 344.61116,156.61113 L 307.61116,156.61113 L 307.3481,192.10589 C 307.20341,211.62801 307.30179,228.16551 307.56671,228.85589 C 307.94113,229.83162 316.29718,230.11113 345.0921,230.11113 L 382.1358,230.11113 L 381.87348,193.36113 z M 535.61116,193.11113 L 535.61116,156.61113 L 498.17781,156.34878 C 468.89528,156.14355 460.56998,156.36129 459.94313,157.34878 C 459.01527,158.81043 458.80678,226.15436 459.72272,228.54126 C 460.26982,229.96698 464.30161,230.10736 497.97272,229.87305 L 535.61116,229.61113 L 535.61116,193.11113 z M 151.91116,152.91113 C 152.79842,152.02387 153.11116,142.66034 153.11116,116.98256 C 153.11116,86.744464 152.90797,82.050799 151.53973,80.68256 C 150.17279,79.315623 145.54458,79.111131 115.97399,79.111131 C 94.453195,79.111131 81.269938,79.490971 80.045418,80.146315 C 78.188378,81.140175 78.111158,82.610523 78.111158,116.97965 C 78.111158,136.66863 78.411158,153.0778 78.777828,153.44446 C 79.144498,153.81113 95.479493,154.11113 115.07783,154.11113 C 141.45931,154.11113 151.02273,153.79956 151.91116,152.91113 z M 305.87383,117.17798 C 306.07917,88.695729 305.86094,80.569902 304.87383,79.94329 C 303.41671,79.018318 234.07262,78.804954 231.69295,79.71812 C 230.29084,80.256157 230.11116,84.440256 230.11116,116.55145 C 230.11116,136.47594 230.41656,153.08319 230.78982,153.45646 C 231.16308,153.82972 248.15058,154.01722 268.53982,153.87312 L 305.61116,153.61113 L 305.87383,117.17798 z M 459.50417,152.52934 C 459.83802,151.65936 460.11116,135.4915 460.11116,116.60077 C 460.11116,86.709756 459.9073,82.050129 458.53973,80.68256 C 457.17103,79.313862 452.45367,79.111131 421.97399,79.111131 C 399.76387,79.111131 386.27305,79.489306 385.04542,80.146315 C 383.18837,81.140175 383.11116,82.610523 383.11116,116.97965 C 383.11116,136.66863 383.41116,153.0778 383.77783,153.44446 C 384.14449,153.81113 401.19635,154.11113 421.67084,154.11113 C 454.6939,154.11113 458.96572,153.93253 459.50417,152.52934 z M 609.50417,152.52934 C 609.83802,151.65936 610.11116,135.32436 610.11116,116.22934 C 610.11116,90.559623 609.79841,81.198379 608.91116,80.311131 C 608.02528,79.42525 598.88489,79.111131 573.99295,79.111131 C 555.44793,79.111131 539.56293,79.384276 538.69295,79.71812 C 537.29084,80.256157 537.11116,84.440256 537.11116,116.55145 C 537.11116,136.47594 537.41116,153.0778 537.77783,153.44446 C 538.14449,153.81113 554.29635,154.11113 573.67084,154.11113 C 604.87017,154.11113 608.96657,153.9303 609.50417,152.52934 z M 76.873648,41.348644 L 77.136138,5.0861563 L 40.873648,5.3486433 L 4.6111574,5.6111313 L 4.3480474,40.492873 C 4.1587574,65.588542 4.4064674,75.762027 5.2309874,76.755518 C 6.1737274,77.891447 12.606848,78.089827 41.494098,77.873776 L 76.611158,77.611131 L 76.873648,41.348644 z M 229.00182,76.742873 C 229.81279,75.765714 230.06217,65.404113 229.87427,40.492873 L 229.61116,5.6111313 L 192.11116,5.6111313 L 154.61116,5.6111313 L 154.34798,39.902253 C 154.17528,62.405515 154.44519,74.866756 155.13317,76.152253 C 156.14426,78.041489 157.45579,78.111131 192.0239,78.111131 C 221.13003,78.111131 228.07969,77.85398 229.00182,76.742873 z M 381.87365,41.348947 L 382.13613,5.0867633 L 344.87365,5.3489473 L 307.61116,5.6111313 L 307.34792,40.605444 C 307.20314,59.852315 307.30365,76.170372 307.57128,76.867792 C 307.95459,77.866682 315.86385,78.080143 344.83451,77.873479 L 381.61116,77.611131 L 381.87365,41.348947 z M 535.00182,76.742873 C 535.81279,75.765714 536.06217,65.404113 535.87427,40.492873 L 535.61116,5.6111313 L 497.61116,5.6111313 L 459.61116,5.6111313 L 459.34798,39.902253 C 459.17528,62.405515 459.44519,74.866756 460.13317,76.152253 C 461.14467,78.042259 462.45929,78.111131 497.5239,78.111131 C 527.05308,78.111131 534.07916,77.85462 535.00182,76.742873 z "
     id="path1881" />
</svg>
